<svg id="Capa_1" data-name="Capa 1" xmlns="http://www.w3.org/2000/svg" viewBox="0 0 245.42 223.61"><title>Sin título-1</title><path d="M38.3.26a4.19,4.19,0,0,1,2,2.46q12.11,29,24.26,57.9A14.85,14.85,0,0,1,65,62.11H63.57c-3.88,0-7.75-.1-11.63-.1a2.3,2.3,0,0,1-2.39-1.58c-1.33-3.34-2.71-6.65-4-10-.79-2-1-2.15-3.07-2.14-7,0-14,.12-21,.14a2.25,2.25,0,0,0-2.29,1.7c-1.36,3.36-2.78,6.7-4.12,10.07A2.58,2.58,0,0,1,12.29,62c-3.75,0-7.51,0-11.26.08H-.48c.31-.82.53-1.48.8-2.12Q12.59,31.16,24.89,2.35A10.11,10.11,0,0,1,26.54.26Zm-6,17.63c-2.44,6-4.74,11.64-7.09,17.42H39.51Z"/><path d="M245.42,133c-.78,1.63-1.3,3.46-2.39,4.85a9.9,9.9,0,1,1-9-16.06,10.15,10.15,0,0,1,11.13,7.57,6.86,6.86,0,0,0,.27.76Z"/><path d="M89.13,186.24v37.37H74.88V161.24a5.82,5.82,0,0,1,.81-.11c3.64,0,7.28.11,10.91.08a2.83,2.83,0,0,1,2.51,1.3Q94.56,169.76,100,177q7.37,9.75,14.74,19.51c.19.26.4.49.78.94v-36h14.33V223.6c-.46,0-.84.07-1.23.07-3.35,0-6.71,0-10.07,0a2,2,0,0,1-1.8-.87q-10.24-13.68-20.53-27.32-3.09-4.12-6.2-8.24C89.84,187,89.59,186.76,89.13,186.24Z"/><path d="M74.47,110.52q0-14.62,0-29.27a3.69,3.69,0,0,1,.11-1.42,1.36,1.36,0,0,1,1-.73c4.95.11,9.91.15,14.85.46,5.93.37,12,.42,17.74,1.58,12.07,2.44,19.39,10.26,22.69,22,4.35,15.41-4.78,31.65-18.53,36.36a36.19,36.19,0,0,1-9.23,1.79c-6.57.45-13.17.57-19.76.74-2.39.06-4.79-.11-7.18-.16-1.46,0-1.64-.19-1.64-1.69q0-13.08,0-26.16Zm15.16,17.9c5,.31,9.92.56,14.77-.52,6.19-1.38,10.28-5,11.44-11.4a41,41,0,0,0,.67-8.2,15.88,15.88,0,0,0-11.75-14.67,49.07,49.07,0,0,0-8.42-.88c-2.22-.14-4.45,0-6.71,0Z"/><path d="M-.74,223.59c0-.43-.06-.82-.06-1.21q0-29.82,0-59.63c0-1.1.37-1.52,1.38-1.56.44,0,.87-.06,1.31-.06H44.94c.55,0,1.1.05,1.7.08v13.43H14.12v11.12H42.68c.12.18.19.24.19.3,0,3.68,0,7.36,0,11a1.48,1.48,0,0,1-1.55,1.71c-.52,0-1,.09-1.55.09H14.14v11.54H46.8v13.14Z"/><path d="M160.51,223.58V161.37h47.33v13.18H175.35v11.2h28.4c0,.44.07.78.08,1.12,0,3.6,0,7.2,0,10.8,0,1-.32,1.26-1.29,1.26-8.6,0-17.2,0-25.8,0h-1.6v1.37c0,2.88.06,5.76,0,8.64,0,1.17.24,1.55,1.5,1.55,10-.06,19.91,0,29.87,0H208v13.15Z"/><path d="M203.84,104.41v12.92h-28.6v11.58h32.59v13H160.71v-62h47.17V93.05H175.34v11.36Z"/><path d="M51.13,100.67c0,.45.06.8.06,1.16,0,6.51,0,13,0,19.54,0,.79-.06,1.24-1.07,1.24q-24.83,0-49.64,0c-.24,0-.47,0-.8,0V100.67Z"/><path d="M94,52.28a9.79,9.79,0,0,1-19.57-.19A9.79,9.79,0,0,1,94,52.28Z"/></svg>