<svg id="Capa_1" data-name="Capa 1" xmlns="http://www.w3.org/2000/svg" viewBox="0 0 593.08 119.45"><title>Sin título-1</title><path d="M233,0c4,1.68,8,3.31,12,5.07,4.85,2.16,9.65,4.42,14.44,6.69a12.2,12.2,0,0,1,2.51,1.61c2.6,2.12,2.67,4.66.2,6.94-1.2,1.11-2.49,2.13-3.77,3.15q-11.52,9.12-23.05,18.22a6.53,6.53,0,0,1-1.75,1A3.27,3.27,0,0,1,229,40.05c-.34-3.25-.41-6.53-.57-9.8-.41-8.3-.78-16.6-1.21-24.9A5.18,5.18,0,0,1,230.16,0Zm1,35.77L257.76,17,232.6,5.56C233.09,15.64,233.58,25.55,234.08,35.77Z"/><path d="M0,108.48c2.7-.18,5.4-.47,8.11-.52,10-.21,20-.42,30-.49q25.79-.16,51.57-.14c7.47,0,14.94.28,22.41.46a5.4,5.4,0,0,1,1.26.35l0,.49c-.75.17-1.49.38-2.25.48a13.64,13.64,0,0,1-1.92.06q-51.63,0-103.28,0c-1.95,0-3.89-.29-5.83-.44Z"/><path d="M473.83,22.2a17.77,17.77,0,0,0-.7,3.39c-.07,13.72-.07,27.43-.09,41.15,0,.52,0,1,0,1.56.08,1.66-.36,2.14-2.06,2.18a9,9,0,0,1-1.55-.11c-2.7-.42-2.89.22-2.89-3.4q0-28.36,0-56.75c0-2.29.45-2.72,2.7-2.77a6.13,6.13,0,0,1,5.31,2.71c7,9.16,13.86,18.39,21,27.43,4.23,5.36,8.79,10.47,13.27,15.62a15.71,15.71,0,0,0,3,2.21c.51.35.83.12.89-.46a9.73,9.73,0,0,0,0-1.08c0-14-.05-28,0-42,0-4.72.79-4.35,4.86-4.07,1.49.11,1.67,1,1.71,2,.06,1.76,0,3.52.05,5.28.08,13.56.23,27.11.18,40.67,0,3.9-.58,7.79-.93,11.69a4.67,4.67,0,0,1-.55,1.69,2.06,2.06,0,0,1-3.29.89,12.82,12.82,0,0,1-2.52-2.36c-7.28-8.82-14.56-17.63-21.75-26.52-4.6-5.68-9.07-11.48-13.57-17.24A4.18,4.18,0,0,0,473.83,22.2Z"/><path d="M280,40V12.12a25,25,0,0,1,0-2.74c.15-1.42.65-1.86,2.1-1.9,1.2,0,2.4,0,3.6,0,4.79,0,9.59,0,14.39,0a54.74,54.74,0,0,1,15.29,1.83c7.66,2.27,12.14,7.48,13.55,15.21,1,5.52.44,10.94-2.65,15.82a17.4,17.4,0,0,1-8.73,7.53c-1.75.63-2,1.56-.94,3.13,3.66,5.24,7.36,10.45,11.05,15.67a15,15,0,0,1,1.16,1.81c.5,1,.16,1.7-.91,2a5.77,5.77,0,0,1-6.78-2.47q-4.49-6.67-9-13.32a9.58,9.58,0,0,0-8.25-4.32c-4.8-.07-9.6,0-14.4,0-2.27,0-3,.67-3,2.91,0,4.15.17,8.31.26,12.46,0,.64,0,1.28,0,1.92-.11,2-1,3-3,2.77-4.27-.52-3.7.22-3.72-3.86C280,57.72,280,48.84,280,40Zm6.75-11.16h.09c0,4.71,0,9.43,0,14.15,0,1.57.39,1.87,2,1.86,2.08,0,4.16,0,6.23-.11,4.67-.14,9.36-.15,14-.51a14.79,14.79,0,0,0,13.22-19.12c-1.8-6.31-7.82-11.66-13.8-11.83-6.63-.2-13.27-.06-19.91,0-1.42,0-1.83.51-1.83,1.92Z"/><path d="M561.91,7.23a4.77,4.77,0,0,1,4.84,3.07q12.75,28,25.58,56.06c.5,1.08,1.25,2.29.27,3.36s-2.58,1.12-4,.88a3.1,3.1,0,0,1-2.29-2.09q-2.26-5.2-4.52-10.42c-.16-.36-.31-.73-.46-1.1a4.77,4.77,0,0,0-4.89-3.3c-9.44,0-18.88,0-28.32.07-3.15,0-4.35,1-5.57,3.89-1.53,3.64-3.21,7.21-4.94,10.77a4,4,0,0,1-4.83,2.16,1.76,1.76,0,0,1-1.57-2.24,9,9,0,0,1,.71-2.15q12.72-27.94,25.45-55.87C558.26,8.29,559.66,7.12,561.91,7.23Zm-.09,10.59c-1,1.27-2.31,2.32-2.94,3.67-3.65,7.88-7.17,15.83-10.72,23.76-.63,1.41-.2,2.09,1.31,2.55,3.11.94,6.33.81,9.5.82,5,0,9.95-.22,14.92-.39,2.12-.07,2.76-1.14,1.89-3.1C572.41,37.55,569,30,565.67,22.4A12.48,12.48,0,0,0,561.82,17.82Z"/><path d="M113.06,69.61c-3.28,2.24-6.32,1.41-7.86-2-1.72-3.82-3.45-7.64-5.07-11.5a3.44,3.44,0,0,0-3.58-2.36c-9.83,0-19.67,0-29.51,0-2.67,0-3.89.89-4.92,3.36Q60,62.13,57.74,67.15c-1.71,3.78-4.2,4.6-8.1,2.69q1.13-2.53,2.28-5.07Q64.27,37.65,76.63,10.54c1.45-3.19,3.82-4.15,7.12-2.91a4.34,4.34,0,0,1,2.34,2.59q4.74,10.51,9.51,21,8.48,18.61,17,37.23C112.75,68.84,112.89,69.21,113.06,69.61ZM81.44,48.18v.07c4.07,0,8.15,0,12.22,0,2.49,0,2.72-.36,1.74-2.6Q90.29,34,85.15,22.34A35,35,0,0,0,82.91,18c-.91-1.46-2-1.45-3,0a16.61,16.61,0,0,0-1.64,2.91c-2.84,6.41-5.64,12.83-8.45,19.26-.89,2-1.8,4.08-2.63,6.15-.51,1.25-.24,1.64,1.1,1.84a6.19,6.19,0,0,0,1,.06Z"/><path d="M401.1,28.42c0,6,0,12.08,0,18.11,0,9.61,5.75,16.56,15.24,18.17,7.56,1.28,14.3-.55,19.61-6.36a16,16,0,0,0,4-11.27c0-8.32-.22-16.63-.17-24.95,0-4.31.42-8.61.68-12.92.07-1.17.68-1.69,1.86-1.74,3.64-.13,4.1.31,4.1,3.92,0,10.48.13,21-.13,31.43a64.89,64.89,0,0,1-1.81,12.28c-1.52,6.93-5.86,11.58-12.5,14A32.51,32.51,0,0,1,408.85,69c-7.66-2.85-11.84-8.64-13.31-16.52s-1.52-16-1.28-24c.18-6.11.22-12.23.3-18.34,0-2.18.48-2.66,2.68-2.71,3.43-.07,3.79.28,3.79,3.68V28.42Z"/><path d="M226.26,7.22c.08,1.55.23,3,.19,4.39s-1.15,1.79-2.29,2.05a23.18,23.18,0,0,0-9.09,4.4c-5.14,3.94-7.83,9.35-9.15,15.55-1.25,5.9-1.07,11.72,1.74,17.16C212,59.22,219.05,64,228.45,65.34c12.36,1.78,27.56-8,29.87-22.83A23.65,23.65,0,0,0,256.13,28c-.21-.43-.41-.86-.68-1.43L261,22.82c1,2.44,2.19,4.71,3,7.1,3.06,9,1.09,17.4-3.72,25.28-5.58,9.14-13.94,14.15-24.37,15.86A32.84,32.84,0,0,1,202.5,54.91a30.71,30.71,0,0,1-3.55-18,34.69,34.69,0,0,1,7.31-18.8A28,28,0,0,1,224.94,7.45C225.29,7.4,225.63,7.33,226.26,7.22Z"/><path d="M147.86,39.1V10.54c0-2.67.41-3.08,3-3.08H188.3c1,0,2.32-.11,2.59,1a8.86,8.86,0,0,1-.12,3.93c-.09.39-1.25.74-1.94.76-3.15.08-6.31,0-9.47,0h-21c-.52,0-1,0-1.56,0-1.59.16-2.22.77-2.27,2.37q-.14,4.67-.14,9.35c0,3.27,0,6.55.15,9.82.12,2.45,1.54,3.7,4,3.65,4.15-.08,8.3-.35,12.45-.41,4.72-.07,9.43,0,14.15,0,1.5,0,1.88.4,2.1,1.88.05.32.1.63.13.95.15,2-.38,2.72-2.29,2.88s-3.59.14-5.39.13c-7,0-14-.17-21-.13-3.2,0-4.25.29-4.25,3.9,0,6.63-.06,13.27-.08,19.91,0,2.88-.34,3.21-3.24,3.21h-.48c-2.37-.06-2.76-.46-2.76-2.84V39.1Z"/><path d="M363.34,42V67.43a3.29,3.29,0,0,1-5,2.94,2.8,2.8,0,0,1-1.2-1.91c-.36-4.4-.68-8.82-.8-13.24-.11-3.71,0-7.44.11-11.15.14-7.35.38-14.7.42-22a46.09,46.09,0,0,0-.76-7c-.18-1.27-1.11-1.86-2.67-1.87-4.35,0-8.71,0-13.07,0-1.08,0-2.16,0-3.24,0-2.08-.15-2.83-1-2.82-2.93,0-1.77.76-2.52,2.77-2.71.44,0,.88,0,1.32,0h44.15c2,0,2.81.65,2.86,2.25.08,2.36-.68,3.4-2.79,3.43-2.76,0-5.52-.12-8.27-.13s-5.43,0-8.15.15c-2.07.09-2.88,1.05-2.88,3.17q0,11.45,0,22.91V42Z"/><path d="M8,36.24v26c0,2.09.14,2.33,2.19,2.35,9.47.07,18.94.09,28.41.13,1,0,1.92,0,2.88,0,1.28,0,1.85.62,2,1.92,0,.15,0,.31,0,.47.13,3-.44,3.6-3.45,3.59l-33.34-.1c-1.2,0-2.4.11-3.59,0-1.47-.12-1.67-.43-1.67-1.9q0-9.11,0-18.21,0-7.74-.07-15.47c0-7.08-.13-14.15-.15-21.22,0-1.56.21-3.11.34-4.66a1.65,1.65,0,0,1,.25-.91C3.2,6.86,5,7.51,6.57,7.56c1.14,0,1.35,1.06,1.35,2.06q0,13.3,0,26.62Z"/><path d="M307.6,118.11a9.08,9.08,0,0,1-.81,1,1.2,1.2,0,0,1-2-.07c-.81-1-1.58-2-2.34-2.94a27.45,27.45,0,0,1-3.83,2.37,12.42,12.42,0,0,1-4.11,1,22.78,22.78,0,0,1-6.07-.26c-6.43-1.47-6.48-8.86-3.06-11.85,1.4-1.22,2.93-2.3,4.42-3.46-.63-.82-1.3-1.56-1.84-2.39-1.45-2.21-1.95-4.57-.51-7,1.54-2.58,4-3.46,6.86-3.21a9.35,9.35,0,0,1,3.31.92,4.84,4.84,0,0,1,2,7.19,27.49,27.49,0,0,1-3.61,3.8,17.62,17.62,0,0,1-1.64,1.27l7.49,7c.51-1.31,1-2.43,1.38-3.59s1.22-.8,1.86-.61c.29.08.63.89.53,1.26a30.65,30.65,0,0,1-1.41,4.18,1.7,1.7,0,0,0,.43,2.28C305.73,116,306.59,117,307.6,118.11Zm-16.27-12.18c-1.32,1.13-2.6,2.08-3.72,3.21a4.32,4.32,0,0,0,1.12,7.2,10.64,10.64,0,0,0,4.72,1,7.59,7.59,0,0,0,6.39-3.27Zm3.12-12.38c-2,.17-3.41.64-4.34,2a3.27,3.27,0,0,0,0,3.81,23.09,23.09,0,0,0,1.57,2.24,1.39,1.39,0,0,0,2.19.28,31.1,31.1,0,0,0,3.44-3.73,2.24,2.24,0,0,0-.42-3.14A12.68,12.68,0,0,0,294.45,93.55Z"/><path d="M246.32,119.41a2.87,2.87,0,0,1-.42.09c-3.07.14-3.11.1-3.94-2.84-.91-3.24-2.8-4.67-6.19-4.64-3.23,0-6.46.09-9.69.12a2.19,2.19,0,0,0-2.3,1.51c-.43,1.11-1,2.16-1.45,3.28-1.08,2.8-1.23,2.91-4.42,2.46,1.33-3,2.65-5.9,4-8.83,2.59-5.69,5.2-11.38,7.77-17.09.5-1.09,1.1-2,2.43-2a2.69,2.69,0,0,1,2.5,1.89q5.55,12.25,11.15,24.48C246,118.36,246.11,118.85,246.32,119.41Zm-14.2-24.33c-2.18,4.92-4.25,9.58-6.36,14.32h12.78C236.41,104.65,234.34,100,232.12,95.08Z"/><path d="M373.66,119.43a5,5,0,0,1-.56.08c-2.91.09-2.91.09-3.74-2.78-1.09-3.77-3.57-5.12-8.08-4.67a51.68,51.68,0,0,1-7,.1c-2-.07-2.51.11-3.31,2-.56,1.28-1.09,2.56-1.61,3.86-.41,1-1,1.71-2.22,1.54a13.49,13.49,0,0,0-1.82,0,9.23,9.23,0,0,1,.31-.9q5.67-12.4,11.35-24.79c.84-1.84,2-2.54,3.42-1.9a3.08,3.08,0,0,1,1.41,1.33c3.85,8.28,7.64,16.58,11.44,24.88C373.39,118.52,373.49,118.94,373.66,119.43Zm-7.76-10c-2.16-4.81-4.25-9.46-6.43-14.33l-6.35,14.33Z"/><path d="M448.14,119.41a3.17,3.17,0,0,1-.44.09c-3.07.12-3.07.12-3.92-2.84-1.06-3.73-3.42-5-7.88-4.6a46.69,46.69,0,0,1-6.69.09c-2.48-.12-3,.13-4,2.44-.47,1.14-1,2.27-1.46,3.4a2.06,2.06,0,0,1-2.37,1.54,11.28,11.28,0,0,0-1.66,0,8.27,8.27,0,0,1,.32-1q5.71-12.43,11.44-24.89a2.78,2.78,0,0,1,2.62-1.93c1.22,0,1.86.88,2.34,1.93q5.55,12.14,11.12,24.25C447.8,118.37,447.94,118.86,448.14,119.41Zm-14.2-24.34-6.35,14.33h12.76C438.22,104.65,436.15,100,433.94,95.07Z"/><path d="M132.86,111.16v8.29H130V91.37c3.51.14,7,.27,10.43.44,1.12.06,2.22.24,3.33.35,5.14.54,8.23,4.1,8,9.22-.28,5.75-3.54,8.93-9.48,9.24C139.17,110.78,136.11,111,132.86,111.16ZM133,94v14.38c3.18-.2,6.28-.36,9.36-.61,3.87-.32,5.84-2.38,6.06-6.21.18-3.27-1.23-6-4-6.42C140.73,94.52,136.9,94.37,133,94Z"/><path d="M592.76,108.62a8.66,8.66,0,0,1-1.93.53c-3.44,0-6.87,0-10.31,0H483.84a19.73,19.73,0,0,1-3-.25c-.29,0-.53-.41-.79-.63.26-.23.49-.62.78-.67a16.12,16.12,0,0,1,2.85-.3q53.31,0,106.63,0A2.15,2.15,0,0,1,592.76,108.62Z"/><path d="M326.22,111.16v8.29h-2.87V91.62c2.06,0,4.08-.08,6.1,0q4.07.18,8.12.57c4.35.43,7.34,3.8,7.52,8.35.24,6-3.29,9.74-9.38,10.07Zm.35-17.09c-.23.36-.3.43-.3.5,0,4.31,0,8.63,0,13,0,.22.56.63.85.63,2.67,0,5.35,0,8-.17,5.05-.36,7.6-4,6.41-8.91a4.79,4.79,0,0,0-4.08-4C333.79,94.58,330.09,94.38,326.57,94.07Z"/><path d="M193.83,94.39V91.76h22.62A31.4,31.4,0,0,1,214.14,96c-4.91,6.35-9.91,12.63-14.88,19-.45.58-.86,1.19-1.44,2h18.35v2.54h-23.4a28.14,28.14,0,0,1,2.11-3.83c5-6.44,10.09-12.81,15.13-19.21.47-.6.91-1.22,1.48-2Z"/><path d="M168.08,94.44c-.37-3.19-.61-2.67,2-2.68,6.2,0,12.4,0,18.6,0h1.45a7.15,7.15,0,0,1-1.39,3.66l-15.28,19.41c-.48.62-.91,1.27-1.52,2.13H188.4c2.34,0,2.34,0,2,2.49H167A23.42,23.42,0,0,1,168.8,116c5-6.46,10.14-12.87,15.21-19.31.52-.65,1-1.34,1.65-2.22Z"/><path d="M375.58,116.55l1.32-2.71,1.19.78a13.64,13.64,0,0,0,12.1,2c2.67-.81,3.94-3.07,3.19-5.42a4.15,4.15,0,0,0-2.89-2.66c-2.38-.79-4.81-1.46-7.2-2.21a18,18,0,0,1-2.8-1c-4.92-2.44-5.57-8-1.37-11.61,2-1.69,4.43-2.11,6.9-2.36a16,16,0,0,1,9.56,2.58c-.3.68-.6,1.4-.93,2.19l-4-1.35a13.11,13.11,0,0,0-8.35.29,3.85,3.85,0,0,0-2.67,3.85,3.66,3.66,0,0,0,2.63,3.85c2.33.82,4.73,1.44,7.07,2.22a28,28,0,0,1,4.11,1.6,5.84,5.84,0,0,1,3.26,6.27c-.29,2.78-1.52,5-4.3,5.93a13.81,13.81,0,0,1-4.32.75c-2.49,0-5.06.54-7.47-.46C378.91,118.32,377.32,117.42,375.58,116.55Z"/><path d="M470.05,93.87l-.62,1.48c-.09.22-.21.42-.36.71-1.13-.39-2.22-.74-3.29-1.15a13.44,13.44,0,0,0-8.81,0,3.9,3.9,0,0,0-2.91,3.93,3.73,3.73,0,0,0,2.87,3.92c2.81.91,5.64,1.74,8.45,2.61a17,17,0,0,1,1.67.66,6.09,6.09,0,0,1,4,5.47,6.74,6.74,0,0,1-3.07,6.6,7.52,7.52,0,0,1-4.6,1.42,62.72,62.72,0,0,1-7.28-.34c-1.66-.29-3.2-1.34-4.78-2.09a1.29,1.29,0,0,1-.54-2.19,7.8,7.8,0,0,0,.57-1.07c.53.35,1,.69,1.51,1A13.37,13.37,0,0,0,465,116.43c3-1.07,4-4.2,2.11-6.43a6.58,6.58,0,0,0-2.79-1.72c-2.67-.92-5.42-1.61-8.11-2.5-2.4-.79-4.38-2.11-5.07-4.79a7,7,0,0,1,3.89-8.37A16.16,16.16,0,0,1,470.05,93.87Z"/><path d="M267.87,93.83c-.36.82-.67,1.49-1,2.26-.94-.33-1.81-.61-2.65-1a14.33,14.33,0,0,0-9.28-.29,4.1,4.1,0,0,0-3.17,3.89,3.86,3.86,0,0,0,2.82,4c2.88,1,5.8,1.75,8.68,2.68,2.31.74,4.47,1.85,5.24,4.34,1.58,5.07-1.59,9.34-6.82,9.74-1.79.14-3.6,0-5.4,0-3.2,0-5.83-1.38-8.34-3.31l1.2-2.34c1,.61,1.9,1.23,2.86,1.74a13.34,13.34,0,0,0,10.33,1,4.3,4.3,0,0,0,3.4-4.81,3.45,3.45,0,0,0-2.32-3c-2-.79-4.15-1.38-6.23-2.06a38.77,38.77,0,0,1-4.41-1.5c-2.47-1.16-4.13-3-4.12-5.93a7,7,0,0,1,4.14-6.64C257.92,90.28,262.93,91,267.87,93.83Z"/><path d="M408.08,94.37h-9.83V91.75h20.52c2.32,0,2.32,0,2.08,2.53h-9.54v25.17h-3.23Z"/><path d="M160.94,119.48h-2.66V91.79h2.66Z"/></svg>