<svg id="Capa_1" data-name="Capa 1" xmlns="http://www.w3.org/2000/svg" viewBox="0 0 319.9 283.17"><title>Sin título-1</title><path d="M319.9,82.9a.58.58,0,0,0-.23,0c-3.86,1.86-7.95,2-12.15,2q-45.06,0-90.11.14h-1.13v58.59h1.3l61.92,0c5.32,0,10.64,0,16-.06h.72c4.32,0,6,1.67,5.93,6-.05,7.32-.17,14.63-.2,21.95,0,3.15.17,6.31.2,9.46a4.73,4.73,0,0,1-4.6,4.76c-5,.12-9.93,0-14.89,0-.28,0-.56,0-.84,0l-65.51-.07c-.2,0-.4,0-.79,0v1.26q0,23.64,0,47.28,0,8.88.07,17.76.08,11.57.17,23.15c0,.36,0,.72,0,1.08-.06,3.49-1.51,4.95-5,4.93-8.08-.06-16.15-.18-24.23-.2-3.51,0-7,.14-10.54.21-.67,0-1.33,0-2,0a5.23,5.23,0,0,1-4.95-5.22c-.07-6.71.06-13.42.1-20.12,0-.32,0-.64,0-1l.09-44q0-11.7,0-23.4V185.9H154.42l-.36,7.4c-.49,9.89-.73,19.81-1.53,29.67-1.11,13.6-5.55,26-14.4,36.64a61.22,61.22,0,0,1-27,18.41,117.79,117.79,0,0,1-18.69,4.51,45.1,45.1,0,0,1-5.69.55c-1.62.08-3.25.12-4.88.06-6.11-.2-12.19.22-18.3-1-7.45-1.46-14.89-2.78-22-5.56C21.41,268.7,8.86,254,3.15,233.29A97.61,97.61,0,0,1,0,210.21c-.08-2.87,1.29-4.27,4.17-4.42,1.24-.07,2.48,0,3.71,0l30.84.07a11.54,11.54,0,0,1,2,.21c1.9.35,2.9,1.7,3.12,4.4s.35,5.5.51,8.25c.39,6.44,2.12,12.36,6.84,17,3.76,3.74,8.46,5.61,13.6,6.52,5.84,1,11.69.61,17.55.1a27.11,27.11,0,0,0,9.4-2.14c6.32-3,9.83-8.17,11.68-14.69a60.6,60.6,0,0,0,2.39-15.82c.11-8.06,0-16.13,0-24.34-.29,0-.66-.07-1-.07-9.32,0-18.64-.09-27.95-.1-2.68,0-5.36.13-8,.15a11.87,11.87,0,0,1-2.38-.25,3.83,3.83,0,0,1-3.31-3.6c-.18-2.18-.1-4.38-.11-6.57q0-12.06,0-24.11c0-1.12,0-2.24.07-3.36A3.66,3.66,0,0,1,66.2,144a18.94,18.94,0,0,1,2.5-.11h37.19c0-1.74,0-3.44,0-5.14q-.06-7.14-.13-14.28c-.08-10.47-.18-21-.24-31.42q-.09-17.58-.14-35.15a15.49,15.49,0,0,1,.23-2.63,2.2,2.2,0,0,1,2.61-1.81,38.81,38.81,0,0,1,4.43,1.33c6,2,12.12,3.77,18.51,4.06a31.48,31.48,0,0,0,15.5-3.44c2.57-1.26,5-2.76,7.65-4.22v92h14.16v-6.32q0-11.34-.07-22.68-.09-25.9-.17-51.82c0-4.22-.12-8.43,0-12.64a4.52,4.52,0,0,1,4.33-4.44c2.84-.1,5.68,0,8.52,0l23.64,0,103.19,0c2.08,0,4.16-.09,6.24,0,3.26.19,4.7,1.8,4.84,5.05.21,5.19.48,10.37.74,15.56a9.62,9.62,0,0,0,.21,1.15Z"/><path d="M154.85,25.87A25.41,25.41,0,1,1,104,25.65,25.53,25.53,0,0,1,129.59,0C143.5.13,155.14,12.08,154.85,25.87Z"/></svg>