<svg id="Capa_1" data-name="Capa 1" xmlns="http://www.w3.org/2000/svg" viewBox="0 0 599.07 361.92"><title>Sin título-1</title><path d="M230.31,271.25c-.07-1.79-.65-2.19-2.42-2.2-3.52,0-7-.09-10.56,0a3.58,3.58,0,0,1-3.32-1.94,14.41,14.41,0,0,1-2-6.95c-.26-4.15-.36-8.31-.42-12.46-.13-8.07-.18-16.15-.26-24.22q-.12-11.88-.24-23.75c-.09-7.48-.24-14.95-.3-22.42q-.13-16.2-.17-32.39c0-8.6-.05-17.2-.08-25.8,0-5.92-.08-11.83,0-17.75,0-4.56-.07-9.14.33-13.66s2.65-6.21,6.43-6.11c3.16.08,6.32,0,9.48,0,1.54,0,2.19-.46,2.24-1.9.11-3,.09-5.9,0-8.85,0-1.26-.64-1.58-1.93-1.54-6.71.2-13.42.46-20.13.55C197,70,187,69.94,177.07,70a42.12,42.12,0,0,0-5.23.53,4.25,4.25,0,0,0-3.63,3.36c-1.82,6-3.58,12.07-5.55,18Q151.88,124.74,141,157.46c-1.87,5.63-3.8,11.25-5.74,16.86a1.81,1.81,0,0,1-.85.92c-.83.4-1.71.67-2.65,1a2.78,2.78,0,0,1-.1-.84,31.78,31.78,0,0,1,.63-4.25c1.62-6.29-.35-11.29-5.29-15.31a9.6,9.6,0,0,1-1.4-1.45,1.07,1.07,0,0,1-.19-.84c1-3.22-.3-5.89-2.14-8.31a33.85,33.85,0,0,0-3.88-3.88,2,2,0,0,0-.85-.42c-1-.26-2-.46-3-.73a1.44,1.44,0,0,1-.83-.5,3.51,3.51,0,0,0-3.21-1.76c-1.41,0-2.82.2-4.25.31.12-.38.26-.79.36-1.21.58-2.43-.89-5.25-3.07-5.41-3.28-.23-6.64-.55-9.63,1.45a2.53,2.53,0,0,1-1,.14l-.16-.33c1.27-2.19,3.84-2.69,5.83-4a3.38,3.38,0,0,0-1.32-.51c-1.45-.21-3.06-.06-4.33-.65-.78-.37-1.24-.39-1.69,0,.27-1.79.6-3.94,1-6.56.34-1,.56-1.58.8-2.2a3.37,3.37,0,0,1,2.59-2.41,14.33,14.33,0,0,1,2.86-.12c2.54.11,5.08.28,7.62.46a2.34,2.34,0,0,1,1.12.35,4.59,4.59,0,0,0,4.56.26,43.94,43.94,0,0,1,4.8-1.78c.84-.24,1.53-.49,1.71-1.39a1.64,1.64,0,0,0-1.05-1.94,44.51,44.51,0,0,0-5.18-2.14,16.62,16.62,0,0,0-15,2.5,6.1,6.1,0,0,1-2.07.86c-.22.06-.84-.42-.82-.58.34-2.16.37-4.5,1.82-6.24,1-1.2,2.11-2.71,4.17-2.19.21,0,.51-.39.8-.56a5.37,5.37,0,0,1,1.75-.92,32.14,32.14,0,0,1,4-.25,4.36,4.36,0,0,1,1.88.25,1.58,1.58,0,0,0,2-.31A3.49,3.49,0,0,1,113,102c1.14-.36,2.31-.63,3.47-.88a5.48,5.48,0,0,1,1.28,0c.35,0,.76.17,1,0a16.56,16.56,0,0,0,3.35-2.06,3.76,3.76,0,0,0,.87-2.34c0-.25-.91-.74-1.47-.88-2.24-.55-4.5-1-6.76-1.5a3.37,3.37,0,0,0-1,0,24.91,24.91,0,0,0-10.58,3.12l-1.23.67-.29-.24a7.16,7.16,0,0,1,.85-1.35,23.09,23.09,0,0,0,6.76-11.61c.7-3.1.24-6.48,2.17-9.29a.71.71,0,0,0,.14-.46c-.08-.69-.19-1.37-.29-2.06a18.91,18.91,0,0,0-2.13.35,2.56,2.56,0,0,0-1,.69c-1.9,1.86-3.89,3.66-5.66,5.64s-3.35,4.06-3.75,6.7c-.38,2.43-.36,4.92-.59,7.38a39.35,39.35,0,0,1-.71,4.71,18.43,18.43,0,0,1-1,2.7l-.37,0a9.22,9.22,0,0,1-.69-1.59c-.32-1.32-.49-2.67-.82-4-.53-2.1-.54-4.41-2.12-6.13q-4.24-4.62-8.6-9.14c-.31-.32-1-.3-1.48-.44a4,4,0,0,0-.22,1.38c.51,2.65,1.12,5.29,1.65,7.94.65,3.22,1.64,6.25,4.25,8.49,1.88,1.62,3.7,3.3,5.59,4.91a2.4,2.4,0,0,1,1,2.6c-.6,2.31-1.2,4.62-1.82,6.93,0,0-.12.07-.4.2-.39-.74-.74-1.52-1.19-2.22A31.75,31.75,0,0,0,88,105.32a46.76,46.76,0,0,0-4.79-3.77,3,3,0,0,1-1-1.4c-2.76-8.82-5.44-17.67-8.21-26.5-1.13-3.62-2.66-4.49-6.5-4.34-7.11.29-14.21.54-21.32.68-4.28.09-8.56,0-12.84-.09-5.47-.09-10.94-.23-16.42-.37-2.43-.06-4.86-.18-7.29-.25A1.4,1.4,0,0,0,8,70.81c0,2.87-.14,5.75,0,8.62.06,1.8.59,2.14,2.46,2.15,2.64,0,5.28,0,7.92,0A10.36,10.36,0,0,1,28.24,88c1.93,4.22,2.25,8.74,2.31,13.24.17,11.27.15,22.55.21,33.83,0,.51,0,1,0,1.55,0,3.1,0,6.2,0,9.47-1-.59-1.67-1.09-2.44-1.48s-1.69-.58-2.3.21a1.33,1.33,0,0,1-1.65.47c-.61-.17-1.09-.08-.94.72.26,1.34,1.86,2.59,3.11,2.21,1.59-.47,2.3.73,3.29,1.43a.61.61,0,0,1,0,.6.89.89,0,0,1-.67.24c-.3-.06-.6-.42-.85-.37a8.33,8.33,0,0,0-1.57.54c.29.45.51,1.2.9,1.3a17.5,17.5,0,0,0,3.1.31c.36,1.29-.19,2.78-.17,4.27.09,5.26-.28,10.54-.47,15.8-.32,8.87-.62,17.73-1,26.59-.24,6.19-.5,12.38-.84,18.56C28,224.79,27.44,232,27,239.29a95.53,95.53,0,0,1-1.94,15.91c-.87,3.79-2,7.48-4.34,10.67a7.24,7.24,0,0,1-6.36,3.19c-2.35-.06-4.71,0-7.07,0-2.9,0-2.9,0-3.61,2.63v7a1.85,1.85,0,0,1,.17.42c.21,2.13.38,2.28,2.46,2.28l1,0c4.11-.17,8.22-.47,12.34-.51,10-.09,19.91-.06,29.87-.06,1.56,0,3.12.12,4.67.19,3.15.14,6.31.32,9.46.39,1.59,0,2.15-.59,2.16-2.2q0-3.84,0-7.68c0-1.79-.6-2.38-2.37-2.39-2.68,0-5.36-.06-8,0a6.34,6.34,0,0,1-5.63-2.61,29.68,29.68,0,0,1-3.3-5.65c-3-7.12-4-14.7-4.33-22.34q-.6-12.74-.89-25.51c-.21-8.71-.25-17.42-.35-26.14,0-4.2,0-8.4-.06-12.59,0-5.16-.09-10.32-.07-15.48a2.23,2.23,0,0,1,1.53-2.07c.64,1,1.15,1.94,1.78,2.78a3.27,3.27,0,0,0,1.39,1.21c.74.23,1.32-.22,1.69-1s.77-1.88,2-2c.18,0,.48-.34.45-.44a1,1,0,0,0-.49-.55c-.54-.26-1.11-.45-1.74-.69,1.14-1.36,2.43-1.23,3.88-.9-.38,1.71.83,4-2.09,4.7-.24.05-.29.9-.42,1.37a5.41,5.41,0,0,0,2.06.4c.36-.07.62-.94.79-1.49.08-.24-.15-.58-.26-1,.87-.17,1.68-.34,2.49-.47a.77.77,0,0,1,.52.21c.72.65,1.42,1.32,2,1.83a27.43,27.43,0,0,0-3,3.26c-.92,1.35-1.51,2.93-.45,4.6a7.89,7.89,0,0,1-.8.26,4.24,4.24,0,0,0-3.55,3.72c-.25,1.49-.51,3-.65,4.49a2.8,2.8,0,0,0,1.87,3.05,1.9,1.9,0,0,1,.77,1.2,10.66,10.66,0,0,1,.05,2c0,2.85,2.94,6.84,5.75,7.5,1.13.26,2,.47,2.28,1.75a.93.93,0,0,0,.59.55c.9.29,1.11,1,1.32,1.79.63,2.43,2.8,3.71,4.68,2.67,2.18-1.21,4.52-2.29,6-4.51.38-.59.74-.66,1.36-.26,1.92,1.25,1.93,1.23,3.85-.15a7.49,7.49,0,0,1,.7-.37c.15.69.54,1.37.36,1.84-1.12,2.91-.57,4.25,2.24,5.14a6.9,6.9,0,0,0,.22,1.63,4.52,4.52,0,0,1-.21,4.52c-.9,1.39-.15,2.53,1.53,2.91a2.22,2.22,0,0,1,1.78,1.58c.49,1.45.8,1.56,2.32,1.08.39-.12.8-.19,1.21-.29l.23.27a5.9,5.9,0,0,1-1,1.66c-1.18,1-1.2,2-.7,3.48,6.27,18.13,12.42,36.29,18.69,54.41a24.12,24.12,0,0,0,2.92,5.69,2.51,2.51,0,0,0,3.91.27,8.65,8.65,0,0,0,1.9-2.28,32.58,32.58,0,0,0,2.4-5.07c3-8.83,5.92-17.69,8.86-26.54.22-.66.47-1.31.7-2l.47-.09c.64,1.3,1.3,2.59,1.92,3.9a8.7,8.7,0,0,0,.49,1.33c.25.35.75.8,1.07.74a1.38,1.38,0,0,0,.82-1,52.82,52.82,0,0,0,.25-5.33c0-3.6-.16-7.19-1.74-10.53a7.66,7.66,0,0,0-.78-1.11c-.21.38-.41.76-.61,1.14-.06.11-.11.23-.2.41a7.09,7.09,0,0,1-.4-6.19c.62,1.08,1.17,2.08,1.78,3.05.17.27.53.62.76.59s.55-.42.68-.72c.34-.78.59-1.59.91-2.49a5.29,5.29,0,0,1,.62.48c.2.2.35.43.53.64,2.92,3.59,6.1,6.79,11,7.52.83.12,1.64.4,2.47.45,2.57.17,5.14.32,7.71.36a4.42,4.42,0,0,0,1.87-.7.93.93,0,0,0,.43-.75.92.92,0,0,0-.61-.6,7.82,7.82,0,0,1-4-2.47,25.53,25.53,0,0,0-15.12-7.33c-1.24-.14-2.48-.34-3.73-.52.24-1.42.24-1.44,1.26-1.72.58-.16,1.17-.26,1.76-.37,6.51-1.28,10.12-6.1,13.57-11.12a.43.43,0,0,0,.11-.21c.13-.71,0-1.22-.9-1.1-.63.09-1.26.24-1.89.28a17.27,17.27,0,0,0-7.34,2,4.06,4.06,0,0,1-2,.4,4.24,4.24,0,0,0-3.07,1.07,6.19,6.19,0,0,1-1.79.78l-.24-.45a26.11,26.11,0,0,1,3-2.08,4.77,4.77,0,0,0,2.53-3.13c.64-2.12,1.43-4.2,2.14-6.28.92.22,1.38.51,1,1.45a4.21,4.21,0,0,0,0,1.55c0,1.38.48,1.83,1.83,2.06a2.94,2.94,0,0,1,1.05.44c.83.51,1.48.23,1.65-.72a1.45,1.45,0,0,0-.94-1.62,1.92,1.92,0,0,1-1.06-2.15,2.4,2.4,0,0,1,.55,0c.75.19,1.61.49,1.87-.56s-.71-1.09-1.37-1.43a2.24,2.24,0,0,1-1-1.22c-.21-.72.41-.87,1-1.06.39-.13.91-.52.95-.84a1.49,1.49,0,0,0-.61-1.17,5.83,5.83,0,0,0-1.55-.47c-.39-.11-1.07-.23-1.08-.38a3,3,0,0,1,.35-1.37c.19-.46.56-.86.72-1.33.75-2.29,1.43-4.61,2.21-6.89.08-.25.78-.57,1-.46,1.29.72,2.46.83,3.33-.26a8.74,8.74,0,0,0,1.57,1c1,.33,2.07.51,3.1.78a.75.75,0,0,1,.4.35c1.41,2.63,1.82,2.81,4.55,1.95a1.5,1.5,0,0,0,.35-.09c.35-.2,1-.46,1-.61a2.19,2.19,0,0,0-.67-1.29,3.9,3.9,0,0,0-1.46-.44l-2.09-.52v-.34a4.22,4.22,0,0,0,1.23-.57,3.33,3.33,0,0,0,.53-1.14c-.43-.14-.95-.5-1.27-.37-1.54.63-1.9.57-2.92-1.07a3,3,0,0,0,.74-.51c.21-.25.47-.65.39-.89a1,1,0,0,0-.81-.54,6.85,6.85,0,0,0-2.19.7,2.07,2.07,0,0,1-2.58-.08,2.93,2.93,0,0,0,.73-.6c.28-.46.73-1,.64-1.45-.16-.81-.92-.69-1.58-.54-.49.1-1,.17-1.69.3.2-.77.31-1.3.48-1.81q5.7-16.89,11.42-33.76,8.35-24.5,16.77-49a6.41,6.41,0,0,1,.61-1.42,3.5,3.5,0,0,1,.87-.68c.2.31.52.6.58.93a11.42,11.42,0,0,1,.11,2q-.08,55-.18,110c0,6.16-.14,12.32-.23,18.47-.17,11.27-.31,22.54-.55,33.81a52.52,52.52,0,0,1-.73,8.21c-.73,4-2.39,5.22-6.44,5.22-4.24,0-8.48,0-12.72,0-1.57,0-2.17.63-2.18,2.19,0,2.16,0,4.32,0,6.48,0,3.47.35,3.74,3.77,3.61,6.11-.25,12.22-.54,18.33-.58,12.12-.09,24.24,0,36.36,0,2,0,4.07.13,6.11.21,3.27.12,6.55.29,9.82.38,1.54,0,2.09-.4,2.16-1.94C230.38,276.68,230.41,274,230.31,271.25ZM97.84,114.12c4.21.12,8.37-.7,12.58-.72a.5.5,0,0,1,0,1c-4.21,0-8.37.84-12.58.72C97.2,115.1,97.2,114.1,97.84,114.12Zm9.73-15.26a21.17,21.17,0,0,1,3.66-1.11c1.25-.24,2.51-.4,3.77-.61.63-.11.9.85.26,1-1.32.23-2.67.39-4,.65a22.6,22.6,0,0,0-3.61,1.14c-2.11.83-4.18,2.18-6.53,2.08-.64,0-.64-1,0-1C103.43,101.07,105.49,99.65,107.57,98.86Zm-3.92-16.09c.15-.63,1.11-.36,1,.27-1.1,4.52-4.93,8.33-4.84,13.15a.5.5,0,0,1-1,0C98.68,91.23,102.52,87.41,103.65,82.77Zm-9.73,18.49c-3.08-3.52-5.54-7.55-5.58-12.36a.5.5,0,0,1,1,0c0,4.54,2.38,8.33,5.29,11.65C95.05,101,94.34,101.74,93.92,101.26Zm26,56.91a13.27,13.27,0,0,1,1.83,5.51,17.58,17.58,0,0,1-.3,5.92c-.2,1-.38,2-.52,3a8.17,8.17,0,0,1-.6,2.16,6.46,6.46,0,0,1-3.06,3.17c-.57.3-1.08-.57-.5-.86a5.73,5.73,0,0,0,3.07-4.05c.24-1.1.35-2.24.57-3.36a19.55,19.55,0,0,0,.5-3.5,15,15,0,0,0-1.44-6.76c-.9-1.85-2.65-2.62-4.31-3.65-.55-.33,0-1.2.5-.86C117.25,155.86,118.9,156.62,120,158.17Zm-5.29,2.9c-.62-2.77-2.36-5-4-7.2-.39-.51.48-1,.86-.51,1.73,2.29,3.51,4.59,4.14,7.44.74,3.33.12,6.71.11,10.07a.5.5,0,0,1-1,0C114.75,167.61,115.38,164.3,114.67,161.07Zm-6.5-15a15.61,15.61,0,0,1,2.46.21,9.32,9.32,0,0,1,4.24,1.73,4.49,4.49,0,0,1,1.72,4c0,.64-1,.64-1,0,.36-3.89-4.41-5-7.42-5A.5.5,0,0,1,108.17,146.05Zm-3.82,4.67c5.42,2.45,6,10.17,3.07,14.72-.35.54-1.21,0-.87-.5,2.64-4.14,2.24-11.13-2.71-13.36C103.25,151.32,103.76,150.46,104.35,150.72ZM103,159.19c.54-.36,1,.5.51.86a6.15,6.15,0,0,0-1.19,9.07c.42.49-.29,1.2-.7.71a7.37,7.37,0,0,1-1.75-5.63A7,7,0,0,1,103,159.19Zm-7.09,6.21c.6,2.79,1.57,6.32,4.59,7.34.6.21.34,1.17-.27,1-3.4-1.16-4.6-4.86-5.29-8.05-.78-3.62-1.55-7.87,1-11,.41-.5,1.11.21.71.7C94.35,158.16,95.19,162.19,95.89,165.4Zm4.8-20.09c-2,.47-4.1.67-5.9,1.63a5.45,5.45,0,0,0-2.15,2,29.13,29.13,0,0,0-1.29,3.64c-.25.59-1.11.08-.87-.5.55-1.29.66-2.68,1.45-3.87a6.29,6.29,0,0,1,2.24-2.08c1.92-1,4.16-1.28,6.26-1.78C101.05,144.2,101.32,145.16,100.69,145.31Zm-8.36-26a62.29,62.29,0,0,0-.94,9c-1.46-4.47-2.83-8.62-4.23-12.9.77.1,1.39.15,2,.27,1.62.31,2.43.35,2.82.8C92.74,117.33,92.44,118.81,92.33,119.31ZM87,110a.51.51,0,0,1,.68.18,5.36,5.36,0,0,0,.88.91,13.21,13.21,0,0,0,1.22.9c.84.56,1.72,1.07,2.58,1.58.55.33.05,1.2-.5.87-.91-.55-1.83-1.07-2.71-1.67a8.58,8.58,0,0,1-2.33-2.08A.51.51,0,0,1,87,110Zm-4.76,49.18c.3-2.59,1.32-5,1.88-7.52A25.9,25.9,0,0,1,86,145.49a12.35,12.35,0,0,1,4.49-5,12.93,12.93,0,0,1,6.62-1.77.5.5,0,0,1,0,1,11.69,11.69,0,0,0-7,2.21,11.82,11.82,0,0,0-3.77,5.18c-.75,2-1,4-1.59,6.06a29.64,29.64,0,0,0-1.62,7.24c-.07,2.53.78,5,1.37,7.39.15.63-.81.89-1,.27C82.87,165.17,81.9,162.28,82.26,159.22ZM93,186.32c-.15-.62.82-.89,1-.26.7,2.88-.28,6.94-3.56,7.68-.63.14-.9-.82-.27-1C92.87,192.16,93.58,188.69,93,186.32Zm-4,3v.25a.59.59,0,0,0,0,.13l0,.1,0,.08a2.11,2.11,0,0,0,.28.45.5.5,0,0,1-.71.7,2.65,2.65,0,0,1-.66-1.39,2.05,2.05,0,0,1,.26-1.21,5,5,0,0,1,2-1.83.5.5,0,0,1,.51.87c-.18.1-.35.21-.52.32l-.41.3c-.13.12-.27.24-.39.37a1.77,1.77,0,0,0-.26.35L89,189v0s0,.09-.05.13a.29.29,0,0,1,0,.09s0,0,0,0S89,189.31,89,189.33ZM86.41,193a.51.51,0,0,1,.69-.18.5.5,0,0,1,.18.68,2.2,2.2,0,0,0-.21.32L87,194a.49.49,0,0,1,0,.11,2.64,2.64,0,0,0-.1.3.36.36,0,0,0,0,.11.43.43,0,0,0,0,.11,2.44,2.44,0,0,0,0,.27c0,.05,0,.1,0,.15h0v0a1,1,0,0,0,.06.25l0,.09,0,.09a1.2,1.2,0,0,0,.13.21l0,.07.08.07.1.1,0,0a1.55,1.55,0,0,0,.22.12l.09,0,.11,0,.16,0H88a1.93,1.93,0,0,0,.34,0h.15l.14,0a.5.5,0,0,1,.27,1,2.9,2.9,0,0,1-1.52-.06,2.38,2.38,0,0,1-1.53-1.67A3,3,0,0,1,86.41,193Zm-.71-10.42h0l-.08,0-.18.09-.16.11,0,0h0l0,0-.25.25-.06.06c0,.05-.06.09-.09.13l-.17.3,0,.09h0a.67.67,0,0,1-.06.15,6,6,0,0,0-.19.73.5.5,0,0,1-1-.27,4.36,4.36,0,0,1,.6-1.56,3.12,3.12,0,0,1,1.47-1.14A.5.5,0,0,1,86,182a.49.49,0,0,1-.34.61Zm6.13-.34a.51.51,0,0,1-.62.35,7.88,7.88,0,0,1-3.32-2.37,6.74,6.74,0,0,1-1.44-3.9c0-.64,1-.64,1,0a6.08,6.08,0,0,0,4,5.31A.51.51,0,0,1,91.83,182.25ZM74,147.33c2.14-.23,4.62.13,5.79,2.18a.5.5,0,0,1-.87.5c-1-1.73-3.15-1.87-4.92-1.68a.5.5,0,0,1-.5-.5A.51.51,0,0,1,74,147.33Zm-10,6.15c2.77-2.95,8-.45,9,3a.5.5,0,0,1-1,.27c-.76-2.75-5.06-4.95-7.3-2.57C64.26,154.65,63.55,154,64,153.48Zm6.57,24.21a.5.5,0,0,1,0-1,.61.61,0,0,1,.24.06,9.58,9.58,0,0,0,.12-1.92c0-.64,1-.64,1,0a12.05,12.05,0,0,1-.44,3.43,12.49,12.49,0,0,1-3.24,6.15,4.09,4.09,0,0,1-2.67,1.17,4.67,4.67,0,0,1-3.08-1.4c-.48-.43.23-1.13.71-.7A3.35,3.35,0,0,0,66,184.54c1.84-.39,3-2.5,3.66-4.07a15.8,15.8,0,0,0,1-2.79ZM65.8,177a.76.76,0,0,1,0-.15v-.23a2.44,2.44,0,0,0,0-.27s0-.08,0-.12h0v0a3.84,3.84,0,0,0-.11-.46l-.06-.15a.26.26,0,0,0,0-.08l0-.09-.12-.19-.06-.1,0,0,0,0-.08-.09a.93.93,0,0,0-.14-.14l-.08-.06,0,0-.19-.12a1.24,1.24,0,0,1-.2-.1h0l-.12,0a.51.51,0,0,1-.35-.62.5.5,0,0,1,.61-.35,3,3,0,0,1,1.72,1.44,3.86,3.86,0,0,1,.34,2.39c0,.28-.38.4-.61.35a.5.5,0,0,1-.35-.61C65.78,177.15,65.79,177,65.8,177Zm3.69-2.1a.51.51,0,0,1-.5-.5,8.08,8.08,0,0,0-.82-3A5,5,0,0,0,66,169.26c-.57-.29-.07-1.15.5-.86A5.84,5.84,0,0,1,69,170.88a9.37,9.37,0,0,1,1,3.52A.51.51,0,0,1,69.49,174.9Zm-6.29-3.14a4,4,0,0,0-1.09,2.88,2.18,2.18,0,0,0,.48,1.2,3.08,3.08,0,0,0,1.46.87.5.5,0,0,1-.27,1,3.46,3.46,0,0,1-2.66-2.91,5,5,0,0,1,1.37-3.71C62.92,170.56,63.62,171.27,63.2,171.76ZM60.27,157c.29-.58,1.15-.07.86.5a27.11,27.11,0,0,0-1.63,3.55,4.33,4.33,0,0,0,.13,3.66c.34.55-.52,1.05-.86.51C57.14,162.57,59.06,159.42,60.27,157Zm-6.72,13.25a5,5,0,0,0-1.27,2.42,2.4,2.4,0,0,0,0,1.19.52.52,0,0,0,.09.2.57.57,0,0,0,.08.13s0,0,.05.06a1.26,1.26,0,0,0,.49.35.51.51,0,0,1,.18.69.51.51,0,0,1-.68.18,2.54,2.54,0,0,1-1.24-2.89,5.79,5.79,0,0,1,1.57-3C53.3,169.09,54,169.8,53.55,170.26ZM58.26,186a2.11,2.11,0,0,1-2-.12,4.8,4.8,0,0,1-1.64-3.35,10.49,10.49,0,0,1,0-3.79c.13-.63,1.1-.36,1,.27a3.4,3.4,0,0,0-.09.65q0,.47,0,.93a9.06,9.06,0,0,0,.59,3.44,3,3,0,0,0,.39.67,1.86,1.86,0,0,0,.38.36.94.94,0,0,0,.46.13,1.53,1.53,0,0,0,.69-.16.5.5,0,0,1,.61.35A.52.52,0,0,1,58.26,186Zm2.4-18.27c.54-.36,1,.5.51.86-3.88,2.6-2.81,9.07.64,11.57.52.37,0,1.24-.5.86C57.23,178.1,56.12,170.8,60.66,167.76Zm5.61,25.14a7.56,7.56,0,0,1-2-.4,5.08,5.08,0,0,1-2.67-1.92,4,4,0,0,1-.32-3.45c.2-.61,1.16-.35,1,.26a3.38,3.38,0,0,0-.12,1.91,2.67,2.67,0,0,0,.82,1.32,5.56,5.56,0,0,0,3.32,1.28.51.51,0,0,1,.5.5A.5.5,0,0,1,66.27,192.9Zm9-6.31a12,12,0,0,1-6.55,5c-.6.22-.86-.75-.26-1a11,11,0,0,0,5.87-4.42,7.68,7.68,0,0,0-.17-7.49c-.29-.58.57-1.08.86-.51C76.41,180.87,76.82,183.91,75.31,186.59Zm1-18.58a13,13,0,0,0-2.43-3.8,3.73,3.73,0,0,0-1.73-1.07,2.54,2.54,0,0,0-2,.55c-.53.38-1-.49-.51-.86a3.52,3.52,0,0,1,2.58-.69,4.26,4.26,0,0,1,2.14,1.14,12.6,12.6,0,0,1,2.82,4.23C77.47,168.09,76.61,168.6,76.34,168Zm.86-5.94c-.18-2.43,1-4.56,1.77-6.76.22-.6,1.19-.34,1,.26-.75,2.05-1.84,4-1.74,6.29s1.62,4,2.87,5.75c.38.53-.49,1-.86.51C78.87,166.25,77.39,164.46,77.2,162.07Zm1.85,23.53c-.61.23-.86-.74-.27-1,2.52-.95,2.88-3.66,2.58-6a22.14,22.14,0,0,0-2.23-7c-.29-.58.57-1.09.86-.51C82,175.13,84.89,183.41,79.05,185.6Zm2.78,8.57a3.59,3.59,0,0,1-.18-3.21,4.8,4.8,0,0,1,2.16-2.63c.57-.3,1.07.57.5.86a4,4,0,0,0-1.9,2.78,3.37,3.37,0,0,0,0,.79,2.53,2.53,0,0,0,.16.63,1.65,1.65,0,0,0,1.23.89c.63.14.36,1.1-.26,1A2.69,2.69,0,0,1,81.83,194.17Zm3.37,10.44a5.41,5.41,0,0,1-2.07-4.06.5.5,0,0,1,1,0,4.52,4.52,0,0,0,2.52,3.82,3,3,0,0,0,2,.29,2.9,2.9,0,0,0,1.81-1.58c.31-.57,1.17-.06.87.5a4,4,0,0,1-2,1.92A4.24,4.24,0,0,1,85.2,204.61Zm4.22,3.94a.5.5,0,0,1,0-1c2.25,0,4.85-1.58,5.3-3.92.12-.64,1.08-.37,1,.26C95.15,206.66,92.09,208.52,89.42,208.55Zm7.12-13.44a8.94,8.94,0,0,1-.46,1.44A5.59,5.59,0,0,1,94.37,199a2.34,2.34,0,0,1-2.64.09.5.5,0,0,1,.51-.86l.19.1.07,0h0l.32.09h.4l.24-.08,0,0,.11-.06.13-.08s.11-.08.08,0l.07-.06L94,198a3.46,3.46,0,0,0,.7-.91,7.29,7.29,0,0,0,.87-2.22.5.5,0,0,1,.61-.35A.52.52,0,0,1,96.54,195.11Zm.55-5.28a.52.52,0,0,1-.18-.68,5.77,5.77,0,0,0,.5-2,3.73,3.73,0,0,0-.5-2,.5.5,0,0,1,.87-.51,4.87,4.87,0,0,1,.63,2.5,7.31,7.31,0,0,1-.63,2.51A.5.5,0,0,1,97.09,189.83Zm1.4,4.36a10.65,10.65,0,0,0,2.29-4.5,7.29,7.29,0,0,0-.23-5c-.27-.58.59-1.09.87-.51,1.64,3.4.18,8-2.22,10.68C98.77,195.38,98.06,194.67,98.49,194.19Zm6.92-.64a18.18,18.18,0,0,1-5.57,8.85c-.48.43-1.19-.28-.71-.71a17.21,17.21,0,0,0,5.36-8.56,45.38,45.38,0,0,0,.93-9.94.5.5,0,0,1,1,0A45,45,0,0,1,105.41,193.55Zm-4.23-13.29c-4.12.21-8.72-1.3-10.57-5.3s-.85-8.49-.84-12.66a.5.5,0,0,1,1,0c0,2.26-.26,4.52-.24,6.79a12.52,12.52,0,0,0,1.09,5.67,8,8,0,0,0,4.31,3.74c3.72,1.44,8.13.81,11.66-.89.58-.27,1.09.59.51.87A18.12,18.12,0,0,1,101.18,180.26Zm23.17.4a20.94,20.94,0,0,1-3.18,3.53c-2.12,1.9-4.73,3.68-7.59,4.12a6.3,6.3,0,0,1-3.69-.43,6.57,6.57,0,0,1-2.91-2.94c-.3-.57.56-1.07.87-.5a5.37,5.37,0,0,0,3.08,2.78c2.36.69,4.91-.47,6.87-1.71a20.15,20.15,0,0,0,5.68-5.36C123.85,179.63,124.72,180.13,124.35,180.66Zm1.22,53.62a.5.5,0,0,1,.61.35c.74,2,.33,4.18,1.15,6.14a.52.52,0,0,1-.35.62.54.54,0,0,1-.62-.35c-.82-2-.4-4.17-1.14-6.15A.49.49,0,0,1,125.57,234.28ZM134,223.9c1.63,1,3.59,1.32,5.37,2s3.2,2.15,5.09,2.5c.63.12.36,1.08-.27,1-2-.37-3.41-1.88-5.24-2.57s-3.8-1-5.45-2.06C132.91,224.41,133.41,223.55,134,223.9Zm.53-9.64a10,10,0,0,0,4.3-1.71c.49-.41,1.2.29.7.71a10.8,10.8,0,0,1-4.6,1.93,42.86,42.86,0,0,1-5.18.78c-.64.07-.63-.93,0-1A45.14,45.14,0,0,0,134.48,214.26Z"/><path d="M91.17,134.81a2.44,2.44,0,0,1,0,.59A2.64,2.64,0,0,1,91.17,134.81Z"/><path d="M347.62,0a65.81,65.81,0,0,1,7.27,2.24,15.49,15.49,0,0,1,8.92,8.88c1.74,4.66.26,10.5-3.36,13.32a10.26,10.26,0,0,1-16.36-6.37,30.1,30.1,0,0,1,0-5.7,2.48,2.48,0,0,1,.19-.68c.29-1,.86-1.6,1.93-1.32s1.14,1.1,1.14,2.09a21.33,21.33,0,0,0,.37,5.19c1.3,4.94,7.14,6.9,10.8,3.75,2.19-1.87,3-5.46,1.95-8.62-.9-2.78-2.88-4.65-5.15-6.27A16.45,16.45,0,0,0,341.45,4c-6.47,1.51-9.8,7.53-8.09,14.05,1.75,6.7,6.29,10.84,12.42,13.5a41.83,41.83,0,0,0,13.55,3.28q16.59,1.28,33.22,2.22c5.27.3,10.55.35,15.82.36,10,0,20,0,30-.18,4.34-.09,8.68-.68,13-1,1.16-.1,2.31-.25,3.46-.28.37,0,.75.28,1.13.43-.23.3-.39.75-.69.86-2.68,1-5.31,2.33-8.09,2.8a86.43,86.43,0,0,1-13.33,1.27c-11.43.15-22.88.15-34.31-.06-7.82-.14-15.65-.59-23.45-1.15-5.89-.42-11.76-1.2-17.62-1.87-2.1-.25-4.17-.86-6.27-1-9.06-.43-17-4.26-24.91-8.12-6-2.92-11.89-6-18.27-8a33.53,33.53,0,0,0-12.13-1.84c-4.61.26-8.25,2.63-9.59,6.35-1.17,3.25-.34,6.23,1.31,9a11.94,11.94,0,0,0,10.76,6.25,6.41,6.41,0,0,0,6.41-5.39,5.11,5.11,0,0,0-1.76-5,3.51,3.51,0,0,0-5.11.53,11.4,11.4,0,0,0-1.45,3.21c-.26.77-.63,1.45-1.44,1.27a2.19,2.19,0,0,1-1.37-1.19,5.07,5.07,0,0,1,.57-4.26,7.47,7.47,0,0,1,7.56-3.79,8.26,8.26,0,0,1,6.17,6.2c1.3,6.21-2.31,10.18-7.9,11.22-6.27,1.16-11.05-1.36-14.66-6.43-.34-.49-.7-1-1.06-1.44,0-.06-.14-.08-.37-.22-.37.5-.77,1-1.15,1.55-2.16,3-4.8,5.49-8.54,6.38A12.93,12.93,0,0,1,264.89,42,8.2,8.2,0,0,1,261,33.29a8.44,8.44,0,0,1,6-7c4.08-1,8.61,2.32,8.71,6.49a3.81,3.81,0,0,1-.35,1.85,1.71,1.71,0,0,1-1.27.79,1.66,1.66,0,0,1-1.15-.8,7.38,7.38,0,0,1-.52-1.71,4.29,4.29,0,0,0-4.29-3.3,4.66,4.66,0,0,0-3.78,4.09c-.46,4.13,2.87,7.32,7.38,7.07,6.41-.35,12-6.66,11.63-13.06a8.87,8.87,0,0,0-6.44-7.82c-3.69-1.22-7.43-.87-11.13-.1-6.27,1.29-12,4-17.74,6.71-5.94,2.81-11.91,5.6-18,8.06a39.56,39.56,0,0,1-9.6,2.43c-8.21,1.11-16.45,2.09-24.71,2.77s-16.27,1-24.41,1.28c-8.31.25-16.62.25-24.94.25-5.35,0-10.71-.08-16-.33-5.09-.25-10.1-1-14.7-3.43a7.61,7.61,0,0,1-1.41-1.27A7.19,7.19,0,0,1,116,36a281.16,281.16,0,0,0,32.19,1.43c9-.17,18.07,0,27.1-.24,6.47-.15,12.92-.68,19.38-1.07,4-.24,8-.44,11.95-.81,6.93-.64,13.82-1.55,20.08-4.94,5.19-2.81,8.79-6.92,10.14-12.82,1.66-7.19-3.18-13.5-10.57-14A17.06,17.06,0,0,0,211.73,9.3a8.79,8.79,0,0,0-1.16,10.82c2.59,4,8.1,3.2,10.28.55a8.16,8.16,0,0,0,2-5.49,20.81,20.81,0,0,1,0-3.35,2,2,0,0,1,1.14-1.4,1.82,1.82,0,0,1,1.59.77,11.43,11.43,0,0,1-2.9,12.72,10.12,10.12,0,0,1-12,1.32c-3.91-2.3-6-7.86-4.81-12.7,1.39-5.52,5.29-8.69,10.25-10.75A58.07,58.07,0,0,1,222.34,0h5.28l2.06.5a13.59,13.59,0,0,1,10.88,13.65A21.24,21.24,0,0,1,236,27c-.6.82-1.26,1.59-1.9,2.38l.15.26a6.86,6.86,0,0,0,1.14-.34c4.48-2.21,8.91-4.49,13.41-6.63,6.71-3.19,13.45-6.31,21-6.93,5.67-.46,10.69,1,14.53,5.45a7.94,7.94,0,0,0,.61.58,46.86,46.86,0,0,1,4.4-3.66c4.53-2.93,9.53-2.85,14.58-1.88a64.8,64.8,0,0,1,15.39,5.49c4.72,2.23,9.38,4.59,14.09,6.86a3.46,3.46,0,0,0,1.26.06,3.47,3.47,0,0,0-.31-1.21A25.17,25.17,0,0,1,330,18.21c-1.84-7.87,1.6-14.52,9-17.2,1.18-.43,2.43-.68,3.65-1Z"/><path d="M222.34,361.92c-1.57-.41-3.17-.72-4.7-1.25-4.43-1.52-8.26-3.92-10.54-8.17a12.1,12.1,0,0,1-.5-11,10,10,0,0,1,9.89-6.22,10.75,10.75,0,0,1,9.42,7.71,11.89,11.89,0,0,1,.09,6.84c-.27,1-.61,1.92-1.88,1.73s-1.27-1.15-1.27-2.11c0-1.23.06-2.48,0-3.71A7.29,7.29,0,0,0,216,339c-4-.26-7.34,3.84-6.76,8.23a10.48,10.48,0,0,0,3.84,6.83c4.7,3.92,10,5.6,16,3.82s9.15-7.19,7.73-13.43c-1.61-7.08-6.33-11.37-12.71-14.08a49.61,49.61,0,0,0-15.35-3.45c-6-.51-12-1-18-1.37-7-.39-14-.71-21-.82-10.95-.17-21.91-.3-32.86-.14-5.78.07-11.55.79-17.32,1.2-1.47.11-3,.19-4.42.22-.33,0-.66-.26-1-.41.23-.29.41-.72.71-.84a64.5,64.5,0,0,1,6.25-2.35,49.93,49.93,0,0,1,13.39-1.64c7.84-.05,15.68-.07,23.52,0s15.83.07,23.73.51c9.24.52,18.47,1.42,27.68,2.29,4.72.45,9.45,1,14.1,1.88,6.23,1.2,12,3.88,17.64,6.66,6.3,3.08,12.46,6.52,19.21,8.55a66.55,66.55,0,0,0,10.27,2.19,13.06,13.06,0,0,0,8.39-1.86c4.08-2.41,5.34-7.27,3.16-12.09a12.57,12.57,0,0,0-9.87-7.66c-4.56-.78-8.5,2.48-8.06,6.76a6.42,6.42,0,0,0,1.06,2.73,3.3,3.3,0,0,0,3.36,1.67,4.52,4.52,0,0,0,3.48-3,12.84,12.84,0,0,1,.55-1.82c.28-.47.87-1.05,1.32-1.05s1.29.62,1.32,1a8.39,8.39,0,0,1-.23,3.61,7.16,7.16,0,0,1-7.39,4.61c-2.78-.16-5.57-2.68-6.55-5.91-1.54-5.09,1.08-9.57,6.61-11.32s11.18.26,15,5.09c.7.88,1.32,1.81,2.13,2.93.49-.65.93-1.22,1.35-1.8a15.32,15.32,0,0,1,7.09-5.89c4.54-1.66,8.92-1.24,12.79,1.8,2.89,2.28,3.51,5.45,2.66,8.87a7.71,7.71,0,0,1-5.94,6.1c-4.53,1.07-9.17-3.2-8.45-7.68.14-.87.51-1.45,1.4-1.5s1.33.49,1.55,1.35a9.09,9.09,0,0,0,1,2.66c1.75,2.71,5.16,2.49,6.67-.36a6.08,6.08,0,0,0-4.25-8.73c-7.9-1.53-15.73,6.58-13.78,14.39,1,4.11,4.12,6,8,6.73,4.75.92,9.28-.22,13.78-1.57,5.95-1.8,11.42-4.71,17-7.4,5.82-2.82,11.57-5.8,17.89-7.36a79.75,79.75,0,0,1,7.87-1.32c4.46-.65,8.92-1.36,13.4-1.84,5.2-.57,10.41-1.1,15.63-1.33q13.83-.62,27.68-.82,14.21-.22,28.43-.1a44.4,44.4,0,0,1,15.83,2.76,18.71,18.71,0,0,1,2.48,1.17c.34.19.52.64.77,1-.38.15-.76.45-1.13.43-2-.11-3.9-.33-5.86-.45-6.93-.41-13.86-1-20.8-1.15-9.15-.18-18.32-.1-27.47.11-8.3.2-16.6.64-24.9,1.13-5.65.33-11.31.79-16.94,1.43-6.39.72-12.58,2.24-17.95,6a17.6,17.6,0,0,0-7.64,11.6c-1.19,6.88,2.26,12.08,9.1,13.38s12.39-1,16.67-6.3a8.36,8.36,0,0,0,1.4-8.37,6.57,6.57,0,0,0-6-4.61,7.37,7.37,0,0,0-6.41,4.31,11.5,11.5,0,0,0-.83,5.86c0,.24.09.47.11.71a1.55,1.55,0,0,1-1.19,1.82,1.38,1.38,0,0,1-1.75-1.06,12.11,12.11,0,0,1-.29-6.85c1.7-7.15,9.8-10.69,15.53-6.81,3.79,2.57,5.13,6.29,4.87,10.69s-2.69,7.69-6.16,10.2a21.89,21.89,0,0,1-9.79,3.94,3.37,3.37,0,0,0-.65.23h-5.28a7.06,7.06,0,0,0-.9-.25c-8.52-1.43-13.45-8.55-11.88-17a24.24,24.24,0,0,1,5.2-10.89c.27-.34.5-.72.75-1.08l-.27-.31c-.71.3-1.44.57-2.13.91-3.82,1.89-7.61,3.85-11.46,5.7-6.22,3-12.49,5.86-19.39,7-6.41,1-12.19,0-16.65-5.2-.62-.71-1.1-.58-1.65.09-3.14,3.75-7.31,5.33-12.05,5.44A35.05,35.05,0,0,1,260,344c-7.56-2.62-14.54-6.53-21.76-9.89a14.32,14.32,0,0,0-2.89-.67l-.12.34c.31.44.62.89.95,1.33A23,23,0,0,1,240,343c2.28,8.73-1.78,16.11-10.08,18.28-.84.22-1.68.41-2.52.61Z"/><path d="M598.16,138.24c-1.44-1.14-2.94-2.2-4.47-3.19a14.23,14.23,0,0,0-3.15-1.67,22.43,22.43,0,0,0-13.2-.5,5.16,5.16,0,0,1-.88.11,1.23,1.23,0,0,1,.59-.6c1.54-.79,3.11-1.54,4.62-2.37,4.2-2.33,8-5.07,10.45-9.41,1.37-2.39,2.34-5.19,5-6.69.81-.45.59-1.42-.33-1.75a3.51,3.51,0,0,0-1.82-.08,22.43,22.43,0,0,0-2.84.93c-5.25,1.9-10.24,4.16-12.93,9.52-.88,1.77-1.75,3.56-2.55,5.37a18.36,18.36,0,0,1-4.73,5.94c-.57-3.21-1.94-5.79-2-8.84a79.78,79.78,0,0,0-1.16-8.65l.53-.08c.53,2.57,1.58,5,1.3,7.76a2.33,2.33,0,0,0,1,2.45c.05-.66.1-1.07.12-1.48a44.89,44.89,0,0,0-.93-9.73,25.21,25.21,0,0,0-2-6.77c-.23-.47-.83-.75-1.26-1.12-.35.49-.73,1-1,1.48-.1.15,0,.39-.07.59-.34,2.28-.65,4.56-1,6.84-.22,1.37-.6,2.72-.8,4.1-.42,2.87.51,5.41,1.89,7.88a53.72,53.72,0,0,1,2.9,6,2.79,2.79,0,0,1-.16,2.25c-1.42,2.06-3,4-4.59,6,0,0-.15,0-.4,0a9.06,9.06,0,0,1-.16-1.3,17.94,17.94,0,0,0-1.62-8.38,44.9,44.9,0,0,0-6.79-9.24c-.88-1-1.6-2.17-2.39-3.27-.3-.42-.59-.85-.89-1.28-.44.41-.91.8-1.31,1.24a1.68,1.68,0,0,0-.35.75c-.68,3.47-1.22,7-.37,10.45,1.35,5.49,4.83,9.42,9.58,12.33a10,10,0,0,1,1.57,1.27,1.74,1.74,0,0,1,.27,2.37c-1.44,2.66-2.78,5.38-4.2,8a9.21,9.21,0,0,1-1.09,1.35,9,9,0,0,1-1.25-1.21,8,8,0,0,1-.73-1.63c-.29-.74-.48-1.53-.83-2.24a59.2,59.2,0,0,0-9.94-14,13,13,0,0,0-2.24-1.8c-1-.67-1.32-.46-1.39.69s-.2,2.06-.23,3.1c0,1.61,0,3.22,0,4.94a.32.32,0,0,1-.17,0,1.85,1.85,0,0,1-1.54-2.1c0-1.71.05-3.43.07-5.14,0-.51-.11-1.1-.79-.79s-1.77.73-2,1.37a1.49,1.49,0,0,1-2.09.88c-2.58-.8-4.86,0-7.15,1a10.42,10.42,0,0,1-2,.43c1-.75,1.77-1.19,2.4-1.76a2.83,2.83,0,0,0,.21-4.06c-1.7-2-1.47-3.5.86-4.69,3-1.51,6-2.41,9.22-.56,1,.55,1.31.27,1.31-.82,0-7.52-.07-15,0-22.56,0-6,.07-12.06.31-18.08.18-4.37,2.41-6.3,6.74-6.3,3.08,0,6.16,0,9.24,0,1.53,0,2.21-.57,2.22-1.9q.06-4.32,0-8.64c0-1.33-.67-1.88-2-1.83-5.82.22-11.65.54-17.48.62-10.47.14-21,.12-31.43.21a53.58,53.58,0,0,0-5.37.35c-2.87.33-4,1.37-4.66,4.16-.06.23-.12.46-.19.69-3.36,10.47-6.64,21-10.09,31.42Q475,138.32,464.36,169.94c-5.22,15.48-10.6,30.91-15.91,46.37-.13.4-.33.77-.65,1.52a18.73,18.73,0,0,1-.79-1.78q-11.29-35.31-22.57-70.61-10.49-32.86-21-65.74c-.82-2.57-1.63-5.16-2.62-7.68a4.17,4.17,0,0,0-4.09-2.81c-1.91,0-3.83.07-5.74.21-10.42.74-20.85.59-31.28.45-3.12-.05-6.24,0-9.35-.09-4.32-.11-8.63-.31-12.94-.49-1.17-.05-1.88.42-1.89,1.62,0,2.91-.09,5.82,0,8.73.07,1.54.59,1.89,2.16,1.92,2.08,0,4.16,0,6.24,0a26,26,0,0,1,4.76.38c4.51,1,6.68,4.29,8,8.4a33.67,33.67,0,0,1,1.35,9.81q.24,14.8.32,29.62c.09,14.23.08,28.46-.63,42.69-.35,7.06-.45,14.13-.75,21.2-.45,10.61-.86,21.23-1.49,31.84-.48,8.25-1.09,16.5-2,24.71-.61,5.73-2.08,11.29-5.46,16.22a4.87,4.87,0,0,1-1.24-.17c-3-1.27-6.17-2.19-8.8-4-7-4.73-13.8-9.82-20.66-14.78-.86-.62-.84-1.2-.13-2.06a137.26,137.26,0,0,0,9-11.33c9.74-14.78,13.77-30.88,10.24-48.47a57.78,57.78,0,0,0-13.35-27.07c-.41-.46-.87-.88-1.28-1.33-.63-.69-1.19-1.45-1.87-2.08-.84-.79-1.88-1.38-2.67-2.2-6.79-7-15.14-11.51-24.23-14.74-.66-.23-1.51-.56-1.87.38a1.66,1.66,0,0,0,.86,2.23,13,13,0,0,1,2.21,1.19,2.73,2.73,0,0,1,1.08,1.56,2,2,0,0,0,1.34,1.76,71.6,71.6,0,0,1,16.51,10.68,5.46,5.46,0,0,1,.67.69c6.94,8.37,10.58,18.11,11.86,28.8a38.13,38.13,0,0,1,.18,6.23c-.16,3.77-.09,7.62-.81,11.31a61.06,61.06,0,0,1-18.66,33.68c-1,.93-1.55.92-2.56,0-3.68-3.37-7.39-6.71-11.06-10.09-3.93-3.64-7.78-7.36-11.72-11-6.45-5.91-12.95-11.76-19.42-17.64a24.74,24.74,0,0,1-7-10.24,31.29,31.29,0,0,1-.95-15.49c1.31-8,7.06-13,15.07-13.52a26.15,26.15,0,0,1,14.56,3.48,7.11,7.11,0,0,1,3.4,3.59,61.22,61.22,0,0,1,2.46,7.6c.7,2.88.68,3,3.58,2.83.07,0,.14.06.25.1.23,1.07.44,2.17.72,3.24a1.53,1.53,0,0,0,.59,1,2,2,0,0,0,3-1.87c0-4.56-.07-9.11-.18-13.67a2.89,2.89,0,0,0-.8-1.76c-1.58-1.6-3.2-3.17-4.9-4.63a42,42,0,0,0-10.74-6.91,39.3,39.3,0,0,0-26.2-2.2,20.91,20.91,0,0,0-14.45,11.78,28.92,28.92,0,0,0-1.88,17.88,39.27,39.27,0,0,0,5,12.87c.65,1.08.51,1.88-.55,2.5a37.47,37.47,0,0,0-8,7,27.9,27.9,0,0,0-8,22.73,31.19,31.19,0,0,0,6.51,16,85.14,85.14,0,0,0,9.47,10.27,43.2,43.2,0,0,0,19.4,10.47,57.3,57.3,0,0,0,21.75,1.05c8.1-1.09,15.74-3.4,22.51-8.14.75-.53,1.25-.18,1.81.24q11.06,8,22.1,16.08a2.47,2.47,0,0,1,1.14,2.22c0,1.84-.13,3.69,0,5.52.26,3.4,0,3.3,3.32,3.3h.72c7.1-.2,14.2-.42,21.31-.59,2.15-.05,4.31.05,6.47.07,6.23.05,12.46.07,18.69.17,3.15,0,6.31.28,9.46.34,1.49,0,2.06-.58,2.07-2,0-3.84,0-7.68,0-11.52,0-1.15-.41-1.4-1.54-1-1.37.54-2.71,1.17-4.1,1.67a21.71,21.71,0,0,1-2.56.62l-.16-.41c.83-.58,1.65-1.16,2.49-1.73a2.87,2.87,0,0,0,1.3-2.89c-.13-1.13-.52-1.36-1.59-1-1.94.74-3.86,1.54-5.82,2.21-1.45.5-3,.83-4.38,1.22-.77-1.34-1.49-2.45-2.07-3.63-3.26-6.68-4.53-13.87-5-21.18-.48-7.13-.69-14.28-.92-21.43-.23-6.95-.37-13.9-.49-20.85-.12-7.8-.21-15.59-.23-23.39,0-8.64,0-17.27.1-25.91q.07-10.92.24-21.83.19-14,.49-27.93c.06-3.15.3-6.3.47-9.45a6.56,6.56,0,0,1,.27-1c.28.67.45,1,.57,1.37,1.68,4.69,3.43,9.36,5,14.08,7,20.91,13.85,41.86,20.87,62.75,6.7,19.92,13.53,39.78,20.31,59.66q7.44,21.8,15,43.55a21.26,21.26,0,0,0,2.53,4.84,2.54,2.54,0,0,0,3.91.42,8.52,8.52,0,0,0,2-2.37,44.64,44.64,0,0,0,2.82-6.18c5.79-17.28,11.42-34.6,17.24-51.86q15.48-46,31.12-91.85c3.61-10.61,7.29-21.18,10.94-31.77a7.75,7.75,0,0,1,.74-1.63,1.32,1.32,0,0,1,.84-.51c.12,0,.41.45.46.73a10.63,10.63,0,0,1,.13,1.79q0,21.36,0,42.72a4,4,0,0,1-.61,1.71,43.3,43.3,0,0,0-2.43,4.35,28.14,28.14,0,0,0-1.16,4.51c-.2.86.29,1.19,1.07,1.12a1.88,1.88,0,0,0,.86-.37c.8-.6,1.36-.37,1.9.38a3,3,0,0,1-.28,3.64,2.37,2.37,0,0,0-.72,1.07,33.68,33.68,0,0,0-.68,3.74,21.68,21.68,0,0,0,0,2.55l-.49.2c-.52-.64-1.07-1.27-1.54-1.94s-1-1.3-2-1a1.7,1.7,0,0,0-1.13,1.9c0,.77,0,1.54,0,2.48-1-.44-1.49-.82-1.25-1.8a21.1,21.1,0,0,0,.51-3.05c.09-1-.37-1.34-1.33-.89-.46.22-.93.45-1.27-.28-.87-1.94-1.8-3.85-2.7-5.77-.19-.39-.34-.81-.56-1.19a1.45,1.45,0,0,0-1.9-.8,1.83,1.83,0,0,0-.81,1.49,31.58,31.58,0,0,0,.7,3.7,2.2,2.2,0,0,1-.52.06c-1.37-.07-1.39.87-1.42,1.84s.42,1.53,1.51,1.51a3.3,3.3,0,0,1,1.46.38,4.31,4.31,0,0,1,.91.81,6.29,6.29,0,0,1-1,.75,1.5,1.5,0,0,0-.45,2.67,3.24,3.24,0,0,0,2.67.7,21.35,21.35,0,0,1,2.87.23l-.05.35a2.21,2.21,0,0,0-1.42,3c.45,1.29,1.53,1.06,2.52.93a5.14,5.14,0,0,0,1.37-.41c1.11-.46,1.74-.21,2,1,.21,1,.17,2.06.39,3.06a1.92,1.92,0,0,0,.82,1.29c.37.14,1-.26,1.44-.48.2-.09.3-.47.48-.5.64-.11,1.43-.36,1.91-.1.66.37,0,.85-.24,1.33s-.42,1.62-.09,2a3.53,3.53,0,0,1,.63,2.67,15.29,15.29,0,0,0,.05,1.79c.38,2.52,0,2.86-2.53,3.08a3.49,3.49,0,0,0-2.29,1,48.25,48.25,0,0,0-3.43,5.47c-.61,1.11-.41,2.85.3,3.21s.65.81.47,1.37-.41,1.13-.57,1.7a10.21,10.21,0,0,0,1.84,9.68c.8,1,2.27,1.58,1.88,3.25a.32.32,0,0,0,.1.21c.95.91.86,2.1.86,3.25a3.36,3.36,0,0,0,2.22,3.59c.74.26.88.76.86,1.48-.09,3.63-.13,7.27-.19,10.91-.16,10.11-.28,20.22-.51,30.33a67,67,0,0,1-.76,9.17c-.6,3.72-2.44,5.06-6.22,5.06h-12.6c-2,0-2.5.51-2.51,2.48q0,3.66,0,7.32c0,1.95.55,2.54,2.5,2.48,4.19-.12,8.38-.38,12.57-.45,7.32-.14,14.63-.29,22-.23,7.65.07,15.31.38,23,.58a5.67,5.67,0,0,1,1.55.07,2.49,2.49,0,0,1,1,.88,8,8,0,0,1,.67,1.3,5.23,5.23,0,0,0,1.29-1.06,2.09,2.09,0,0,1,1.95-1.12c2.64,0,5.28.06,7.92,0,1.6,0,2-.47,2.12-2.07.06-1.32,0-2.64.08-4,0-1,.12-2.07.2-3.3a33.26,33.26,0,0,0,13.45,8.71,6.63,6.63,0,0,0,2.2.44,1.41,1.41,0,0,0,1.11-.65c.1-.26-.3-.79-.56-1.12a27.84,27.84,0,0,1-2.07-2.44,35.37,35.37,0,0,1-2-3.92c-2.43-5.2-6.47-8.7-11.53-11.2a4.29,4.29,0,0,1-2.47-2.73c1,.18,1.66.26,2.33.45a18.34,18.34,0,0,0,11.76-.43,55.24,55.24,0,0,0,7.44-4c1.07-.62,1-1.45-.14-1.94-.91-.39-1.91-.56-2.84-.89a11.81,11.81,0,0,0-6.37-.47,3,3,0,0,1-1.82-.24,5.81,5.81,0,0,0-4.3-.21c-2.79.76-5.73,1.08-8,3.17a1.77,1.77,0,0,1-1.24.26,5.51,5.51,0,0,1-4.54-2.5c-.63-1-1.34-2-1.88-3.06a18.68,18.68,0,0,1-.84-2.49,9.69,9.69,0,0,1,3.12-.08,17.56,17.56,0,0,0,10.47-.15,18.71,18.71,0,0,0,9.18-6.21,2,2,0,0,0,.48-1.58c-.12-.33-1-.55-1.48-.56-2.2-.06-4.4-.07-6.6,0a6.38,6.38,0,0,0-2.2.48c-1.2.51-2.32,1.21-3.51,1.74-2.51,1.12-4.68,2.85-7.42,3.56s-4.27.21-5.33-2.58a10.86,10.86,0,0,0,6.16-6,12.22,12.22,0,0,1,1.52.46c.81.34,1.56,1.05,2.37,1.11a8.64,8.64,0,0,0,6.78-2.08,5.07,5.07,0,0,1,1-.71,28.32,28.32,0,0,0,7.87-6.37,3.9,3.9,0,0,1,3.28-1.64,2.59,2.59,0,0,0,2.27-1.68c.17-1-.67-1.22-1.36-1.5-.06,0-.08-.12-.22-.35,1.11-.23,1.23-2.33,3.15-1.46a1.64,1.64,0,0,0,.12,2.54c-.21.58-.66,1.28-.49,1.48a3.21,3.21,0,0,0,1.56.88,4.22,4.22,0,0,0,1.55.12,1.15,1.15,0,0,0,.8-.36c.65-1,1.28-2,1.85-3.06s.12-2-1.16-2.07l-1-.1c.4-2.11.4-2.1-1.57-2.66-1-.28-.67-1-.37-1.51.85-1.44,1.78-2.84,2.72-4.22a11.48,11.48,0,0,0,2.1-7,17.33,17.33,0,0,0-2.26-8.1,3.27,3.27,0,0,1-.05-3.39c1.89-3.73,1.94-7.4-.62-10.91a1.72,1.72,0,0,1-.36-1c.1-2.28-1.66-2.85-3.22-3.65a1.86,1.86,0,0,1-.88-.87,5.87,5.87,0,0,0-5.1-3.74c-.72,0-1.43-.11-2.14-.17a5.15,5.15,0,0,1,1.38-1.7,3.36,3.36,0,0,0-.44-5.67c-1.23-.69-2.51-1.27-3.78-1.86A10.55,10.55,0,0,0,558,163a5.55,5.55,0,0,1-1.27-.09c.54-2,.65-2.06,2.44-1.66a10.24,10.24,0,0,0,5-.09c-3.15-2.18-1.87-4,.39-5.81l-.31-.3h-4.57a20.9,20.9,0,0,1,.93-2.52c.68-1.27,1.49-2.46,2.18-3.72a2.75,2.75,0,0,1,2.55-1.47c2-.09,3.58,1,5.19,2,2.59,1.57,5.12,3.24,7.78,4.69a6.78,6.78,0,0,0,3.43.81,14.84,14.84,0,0,1,5.78.41c1,.34,1.75-.67,1.33-1.7a6.89,6.89,0,0,0-.86-1.42c-4.29-5.7-10-8.28-17.08-7.59a30.36,30.36,0,0,1-3.8.28c-1.22-.05-1.35-.36-.68-1.42a46.17,46.17,0,0,1,3-4.34c1.84-2.31,4.4-2.44,6.54-.45.12.1.23.23.35.33A11.42,11.42,0,0,0,587,141.76a4.86,4.86,0,0,1,2.47-.12c2.21.72,4.26.19,6.34-.38a9.82,9.82,0,0,1,1.76-.36c.75-.05,1.49-.26,1.46-1.06A2.46,2.46,0,0,0,598.16,138.24Zm-20.1-9.83c3.28-2.64,6.28-5.61,9.75-8,.53-.37,1,.5.5.86-3.4,2.35-6.33,5.28-9.54,7.85C578.27,129.51,577.56,128.81,578.06,128.41Zm-17.7,13.77c-1.82-4.71-5.5-8.45-7.07-13.29-.2-.61.77-.87,1-.26,1.57,4.82,5.25,8.58,7.08,13.28C561.56,142.51,560.59,142.77,560.36,142.18ZM295.71,244.8a45,45,0,0,1-20.08,5.62c-6.3.16-12.49-.19-18.23-3-2.56-1.26-4.92-2.93-7.36-4.42a1.41,1.41,0,0,1-.44-.4c-3.18-4.42-6-9-6.68-14.58a26.47,26.47,0,0,1,5.76-20.49c.84-1.06,1.81-2,2.9-3.24,2.11,1.8,4.09,3.47,6,5.17q17.53,15.27,35.06,30.55c1.11,1,2.23,1.94,3.28,3C296.81,243.79,296.73,244.26,295.71,244.8Zm262.78,21.06c2.3,3.54,5.69,6.07,8.92,8.69.5.41-.21,1.11-.71.71-3.3-2.69-6.72-5.28-9.07-8.89C557.27,265.83,558.14,265.33,558.49,265.86Zm-3.35-8.37c2.46-.49,4.89-1.12,7.36-1.56a21.71,21.71,0,0,1,7-.37c.63.1.36,1.06-.27,1a21.28,21.28,0,0,0-6.93.44c-2.33.43-4.62,1-6.94,1.49C554.78,258.58,554.51,257.62,555.14,257.49Zm-3.94-14.16A105.09,105.09,0,0,0,562.43,241c.62-.14.89.83.26,1a109.91,109.91,0,0,1-11.49,2.37C550.56,244.4,550.57,243.4,551.2,243.33Zm24.86-53.11a9.55,9.55,0,0,1,1.56,4.63,12.82,12.82,0,0,1-.44,5c-.18.62-1.15.35-1-.26.84-2.8.72-6.39-1-8.83C574.82,190.2,575.69,189.7,576.06,190.22Zm-22.15-14.67c.47.45-.24,1.15-.71.71a5.71,5.71,0,0,0-5.08-1.34c-3.26.58-5.72,2.75-7.77,5.23a16.72,16.72,0,0,1-2.67,2.78,10.22,10.22,0,0,1-4.35,1.81c-.63.12-.89-.84-.26-1a9.15,9.15,0,0,0,4.9-2.42c1-1,1.85-2.21,2.83-3.26a14.69,14.69,0,0,1,3.91-3C547.6,173.56,551.39,173.11,553.91,175.55Zm-13.07,22.61a5,5,0,0,0,1.93,2.68c.5.39-.21,1.1-.71.7a5.8,5.8,0,0,1-2.2-3.18,5,5,0,0,1,.41-3.15,9.37,9.37,0,0,1,5.44-4.57c.61-.22.87.74.27,1a8.54,8.54,0,0,0-4.74,3.89A3.94,3.94,0,0,0,540.84,198.16Zm9.11-6.1c-.26-1.62-1.19-3.47-3.12-3-.62.14-.89-.82-.26-1a3.14,3.14,0,0,1,3.16,1c1.55,1.79,1.55,4.69,1,6.86-.61,2.37-2.25,4.6-4.88,4.73-.64,0-.64-1,0-1a3.73,3.73,0,0,0,2.77-1.52A8.17,8.17,0,0,0,550,192.06Zm.68-8.09c-1.49-1.3-4.37-3-6.15-1.29-.46.45-1.17-.25-.7-.7,2.23-2.17,5.62-.4,7.56,1.28C551.83,183.69,551.12,184.39,550.63,184Zm-4.06,11.81c.59-.25.85.72.26,1-2.89,1.2-3.78,5.8-1.49,7.95.47.44-.24,1.15-.71.71C541.74,202.69,543,197.25,546.57,195.78Zm-.8,14.06a4.11,4.11,0,0,0,4.89.18,12.25,12.25,0,0,0,4-4.4,19,19,0,0,0,2.37-6.5,11.9,11.9,0,0,0-.51-6.45,7.67,7.67,0,0,0-4.62-4.28c-.61-.22-.35-1.19.26-1a8.76,8.76,0,0,1,5.54,5.56c1.52,4.64-.13,10.19-2.78,14.1a11.18,11.18,0,0,1-4.72,4.27,5,5,0,0,1-5.17-.81C544.56,210.13,545.28,209.43,545.77,209.84Zm7.48-12.23a5.36,5.36,0,0,0-.55-1.74.5.5,0,0,1,.86-.51,6.75,6.75,0,0,1,.68,2.18,5.85,5.85,0,0,1-.2,2.28.5.5,0,0,1-1-.26A5.16,5.16,0,0,0,553.25,197.61Zm-27.07-20.9c-2.81.06-5.91-.3-8.28-1.93-2.61-1.81-3.45-4.82-3.2-7.88,0-.63,1-.64,1,0a8.64,8.64,0,0,0,.8,4.91c1.25,2.28,3.76,3.29,6.21,3.69a24.42,24.42,0,0,0,8.22-.29c.63-.12.89.84.26,1A30.11,30.11,0,0,1,526.18,176.71Zm0,10.77a8.38,8.38,0,0,0-3.17,3.11,9.51,9.51,0,0,0-1.51,4.17c-.06.64-1.06.64-1,0a10.62,10.62,0,0,1,1.65-4.67,9.4,9.4,0,0,1,3.52-3.48C526.24,186.32,526.74,187.18,526.17,187.48Zm2.26-25.8a.51.51,0,0,1,.35-.62.53.53,0,0,1,.62.35,5.57,5.57,0,0,0,1.57,2.5,1.58,1.58,0,0,0,.24.15l.09,0a1.39,1.39,0,0,0,.19.06l.1,0h.19c.11,0,0,0,.09,0l.16,0,.12,0a3.09,3.09,0,0,0,1.2-1.13,9.4,9.4,0,0,0,1.49-4.19.51.51,0,0,1,.5-.5.5.5,0,0,1,.5.5,11.23,11.23,0,0,1-.73,3c-.53,1.31-1.44,3.07-3,3.4C530.14,165.56,529,163.16,528.43,161.68Zm3.77-2.17s0,.07,0,.08a1.33,1.33,0,0,0,0,.19l0,.09s0,0,0,0a1.63,1.63,0,0,0,.5.58.51.51,0,0,1,.18.69.49.49,0,0,1-.68.17,2.44,2.44,0,0,1-1.07-1.57,3.43,3.43,0,0,1,1.19-2.92,4.48,4.48,0,0,1,2.91-1.37.5.5,0,0,1,0,1,3,3,0,0,0-1.39.45,4.24,4.24,0,0,0-1.22,1.08,3.87,3.87,0,0,0-.24.37l-.1.19a.79.79,0,0,0,0,.09,2.4,2.4,0,0,0-.12.38,1,1,0,0,0,0,.31Zm9,9.7c1.83-.26,3.11-1.85,4.08-3.28s1.87-3.28,2.91-4.85c.35-.54,1.22,0,.86.5-1.1,1.67-1.95,3.48-3.09,5.12s-2.52,3.2-4.49,3.47C540.85,170.26,540.58,169.29,541.21,169.21ZM545,142.86c1.8,3.76,5.31,6.54,6.48,10.62a.5.5,0,0,1-1,.27c-1.14-4-4.62-6.71-6.37-10.38C543.85,142.79,544.71,142.28,545,142.86Zm-6,12a.5.5,0,0,1,.68.18,6.3,6.3,0,0,1,.22,6.93c-.35.54-1.22,0-.87-.5a5.32,5.32,0,0,0-.21-5.93A.5.5,0,0,1,539,154.9Zm-.43,12.21a11.35,11.35,0,0,0,5.07-7.49,13.57,13.57,0,0,0-2-8.54.5.5,0,0,1,.87-.5,14.68,14.68,0,0,1,2.14,9.3c-.52,3.43-2.78,6.14-5.54,8.1C538.5,168.35,538,167.48,538.52,167.11Zm-10.39-16.85c2.68-2.4,6.92-3.54,9.92-1.07.5.41-.21,1.12-.7.71-2.55-2.1-6.28-.93-8.51,1.07C528.36,151.4,527.65,150.69,528.13,150.26Zm1.17,4.34a3.52,3.52,0,0,1,3.39-.61c.61.21.34,1.18-.26,1a2.44,2.44,0,0,0-1.82,0,3.7,3.7,0,0,0-1.38,1.12,8.1,8.1,0,0,0-1.55,3.67.49.49,0,0,1-.61.35.52.52,0,0,1-.35-.62,9.13,9.13,0,0,1,.54-1.9A7.05,7.05,0,0,1,529.3,154.6Zm-3.1-2.41c.48-.43,1.19.28.71.71-3.33,3-3.62,8.4.11,11.21.51.39,0,1.25-.5.87a7.94,7.94,0,0,1-3.25-6.28A8.76,8.76,0,0,1,526.2,152.19Zm2.15,17.15c.45-.47,1.15.24.7.7a5,5,0,0,1-3,1.57,6.17,6.17,0,0,1-5-2.26,8.45,8.45,0,0,1-2.3-5.45.5.5,0,0,1,1,0C519.81,167.82,524.72,173.08,528.35,169.34Zm-13.93-17.59a16.85,16.85,0,0,1,5.67-3.71c.58-.27,1.09.59.51.87a17.08,17.08,0,0,0-5.25,3.3,5,5,0,0,0-1.32,2.37,5.81,5.81,0,0,0,.37,3.19c.22.61-.75.87-1,.27A6,6,0,0,1,514.42,151.75Zm-2.72,44.16c.47.43-.24,1.14-.71.7a7.3,7.3,0,0,1-2-3.43,12.54,12.54,0,0,1,.39-7.59c.79-2.09,2.29-4.18,4.63-4.6.63-.11.89.85.26,1a4.53,4.53,0,0,0-2.7,1.69,10.38,10.38,0,0,0-2,6.31A7.85,7.85,0,0,0,511.7,195.91ZM508.34,199a.5.5,0,0,1,0,1A.5.5,0,0,1,508.34,199Zm-.21-21.39a7.64,7.64,0,0,1,5.44-3.44.5.5,0,1,1,.26,1,6.73,6.73,0,0,0-4.84,3A.5.5,0,0,1,508.13,177.58Zm3.94-28.09c.6-.23.86.74.26,1a4.38,4.38,0,0,0-2.45,2.33c-.93,2-.68,4.51-.21,6.62a16.72,16.72,0,0,0,2.32,5.74c.36.53-.5,1-.86.51a15.62,15.62,0,0,1-1.61-3.25C508,158.34,506.94,151.46,512.07,149.49Zm-4.64,18.57a.51.51,0,0,1,.62-.35.5.5,0,0,1,.35.61,4.68,4.68,0,0,0-.29,1.19,3.6,3.6,0,0,0,.06,1.15,2.07,2.07,0,0,0,1.38,1.55.51.51,0,0,1,.35.61.51.51,0,0,1-.62.35,3.14,3.14,0,0,1-2-2.15A4.92,4.92,0,0,1,507.43,168.06ZM500.9,191.2c.12.63-.84.89-1,.26-.66-3.27,2.15-5.52,4.42-7.34a.5.5,0,0,1,.78.61c-.19.41-.24.87-.43,1.28s-.8.23-.89-.18C502.14,187.22,500.44,189,500.9,191.2Zm4.8.91a14.42,14.42,0,0,0-3,5.12,5.58,5.58,0,0,0-.3,2.83,2.76,2.76,0,0,0,1.68,2c.58.28.07,1.14-.51.87-4.75-2.22-.95-8.9,1.4-11.5C505.42,190.93,506.13,191.64,505.7,192.11Zm10.15,16.62a3.28,3.28,0,0,1-2.28,2c-1.87.33-3.61-1.18-4.69-2.52s-2.21-3.36-1.88-5.24c.12-.63,1.08-.36,1,.27a4.2,4.2,0,0,0,.43,2.28,8.14,8.14,0,0,0,3.28,3.84,2.55,2.55,0,0,0,1.8.37,2.48,2.48,0,0,0,1.5-1.52C515.26,207.64,516.12,208.15,515.85,208.73Zm0-5.61a3.54,3.54,0,0,1-2.52.45,2.31,2.31,0,0,1-1.64-1.39.5.5,0,0,1,.35-.62.52.52,0,0,1,.61.35c0-.09,0,.08.07.11a.41.41,0,0,0,0,.09l0,0,0,.05.06.06a.46.46,0,0,1,.07.07l0,0a1.92,1.92,0,0,0,.31.18l.13,0,.2.05.07,0h.57l.12,0a3.19,3.19,0,0,0,1-.35.5.5,0,0,1,.5.86Zm.63-8.17a.65.65,0,0,1,0,.13h0l0,0,.06,0h0c-.06-.05,0,0,0,0h.16l.1,0a1.41,1.41,0,0,0,.22-.06l.09,0h0c.17-.07.33-.16.48-.24.57-.31,1.07.55.51.86s-1.47.76-2.15.39c-1-.58-.47-2.25-.17-3.1a11.2,11.2,0,0,1,1.71-3.22.51.51,0,0,1,.71,0,.52.52,0,0,1,0,.71l0,0h0l-.09.12-.21.32c-.15.25-.3.51-.44.78a11.13,11.13,0,0,0-.68,1.52,7.81,7.81,0,0,0-.26.82,3.82,3.82,0,0,0-.08.39.52.52,0,0,0,0,.11s0,.08,0,.13v.31Zm2.42-8.92a3,3,0,0,0-2.7.61,4.13,4.13,0,0,0-1.39,2.76.5.5,0,0,1-1,0,5.07,5.07,0,0,1,1.73-3.5,4,4,0,0,1,3.62-.84A.5.5,0,0,1,518.93,186Zm7.5,33.21a7.11,7.11,0,0,1-3.53-2.19,11.83,11.83,0,0,1-2.49-7.11,19.43,19.43,0,0,1,1-7.38c.21-.61,1.18-.35,1,.26a17.35,17.35,0,0,0-.82,3.63c-.5,4.33.21,10.45,5.18,11.83A.5.5,0,0,1,526.43,219.24Zm1.45-21.83a6.67,6.67,0,0,1,2.5-4.37c.54-.35,1,.51.5.87-1.26.82-1.79,2.48-2.06,3.88a10.26,10.26,0,0,0,.15,4.77.5.5,0,0,1-1,.26A11.51,11.51,0,0,1,527.88,197.41Zm12.43,18.78a9.64,9.64,0,0,1-7.94.54,8.3,8.3,0,0,1-4.58-6.41c-.11-.63.85-.9,1-.26a7.39,7.39,0,0,0,4,5.75,8.63,8.63,0,0,0,7.06-.48C540.38,215.05,540.89,215.92,540.31,216.19Zm2.4-8.52a15.27,15.27,0,0,1-5.65-2.79,10.28,10.28,0,0,1-3.28-10c.87-4,4-7.85,8.07-8.91a.5.5,0,0,1,.27,1,9.86,9.86,0,0,0-5.25,3.67A10.46,10.46,0,0,0,535.33,201c1.39,3.12,4.5,4.79,7.65,5.69A.5.5,0,0,1,542.71,207.67Zm18.57,3.2c-1,1.67-1.67,3.48-2.66,5.14a10.66,10.66,0,0,1-3.09,3.42,10.82,10.82,0,0,1-3.65,1.51c-2.47.56-5.46.41-7.25-1.61-.42-.48.28-1.19.71-.71,2.12,2.39,6.1,1.79,8.66.53,3.53-1.75,4.59-5.61,6.41-8.79A.5.5,0,0,1,561.28,210.87Zm2.19-9.76a.5.5,0,0,1-1-.27c.77-2.53,1.17-5.93-.72-8.08-.43-.49.28-1.2.7-.71C564.63,194.49,564.35,198.2,563.47,201.11Zm5.3,16.44a.5.5,0,0,1,0-1A.5.5,0,0,1,568.77,217.55ZM571.92,202c-.5,2.87-2.79,5-4.94,6.8-.49.4-1.2-.3-.7-.71,2-1.63,4.13-3.59,4.65-6.22s-.67-5.11-1.73-7.32c-.28-.57.58-1.08.86-.5C571.24,196.53,572.4,199.26,571.92,202Zm-8.85-24.25a4.23,4.23,0,0,1,3.06.34,11.44,11.44,0,0,1,4.42,4.62,15.09,15.09,0,0,1,2.15,5.59c.09.64-.92.63-1,0a15,15,0,0,0-2.87-6.4,8.3,8.3,0,0,0-3.66-3.14.54.54,0,0,1-.72.33c-.48-.21-1-.22-1.5-.43S562.69,177.89,563.07,177.78Zm-5.91-8.95a6.1,6.1,0,0,1,2.62-.58,3.72,3.72,0,0,1,2.49,1.09c.46.45-.25,1.15-.71.7a3.44,3.44,0,0,0-3.89-.35.51.51,0,0,1-.69-.18A.5.5,0,0,1,557.16,168.83Zm7.4,21a.5.5,0,0,1-1,0c0-4.51-4.28-8.23-8.72-8.07-.64,0-.64-1,0-1A9.55,9.55,0,0,1,564.56,189.83Zm6.07-43.64a13.59,13.59,0,0,0,4,2.22,13.76,13.76,0,0,1,3.95,2.28c.49.43-.22,1.14-.7.71a13.78,13.78,0,0,0-4-2.22,14,14,0,0,1-4-2.28C569.44,146.47,570.15,145.76,570.63,146.19Zm16.57-9.46c-.94,1.78-3.53,1.6-5.2,1.33a13.1,13.1,0,0,1-5.87-2.3c-.5-.4.21-1.1.71-.71a12,12,0,0,0,5.06,2c1.27.24,3.69.61,4.44-.81C586.64,135.65,587.5,136.16,587.2,136.73Z"/><path d="M575,244.18c.09,1.38.21,2.76.26,4.14a6.72,6.72,0,0,1-.26,1.44,4.66,4.66,0,0,1-1.39-.37,3.08,3.08,0,0,1-.45-4.9c.39-.43.6-.74.33-1.33a1.66,1.66,0,0,1,0-1.16c.33-.82.22-1.34-.62-1.74-.2-.1-.29-.69-.23-1a4,4,0,0,1,.57-1c-2-.87-2.58-2.05-2-4.46a3.59,3.59,0,0,0-.74-3.44c-.53-.64-.94-1.37-.21-2.13s1.44-.45,2.15,0c.29.19.6.35,1,.58,0-.39,0-.67-.06-.94-.09-.83.2-1,1-.68s1.69.34,2.5.61a7.59,7.59,0,0,1,1.4.85c-.29.43-.57.86-.85,1.29-.49.73-1,1.43-1.44,2.19-.06.12.36.6.64.77.6.36,1.32.56,1.89,1a1.56,1.56,0,0,1,.45,2.32c-.6.9-1.37.5-2.08.05-.13-.09-.27-.16-.41-.25-.17,1.44.17,2,1.4,2.33a2.13,2.13,0,0,1,1.36,2.57,1.23,1.23,0,0,1-1,.53c-.6,0-1.36-.29-1.46.52a5.39,5.39,0,0,0,.49,1.93c0,.09.24.12.28.21a3.27,3.27,0,0,1,.36,1.15c0,.18-.48.55-.66.5a2.26,2.26,0,0,1-1-.65,5.72,5.72,0,0,1-.64-1.07Z"/><path d="M583.16,224.57l-1.62-1.48a10.42,10.42,0,0,0,1.44-.38c.65-.29,1.27-.65,1.91-1a7.31,7.31,0,0,1,1.55-.63c.09,0,.57.8.45,1a4.77,4.77,0,0,1-1.13,1.3c-.09.1-.29.09-.44.12a2.36,2.36,0,0,0,3.16,1.65,8.12,8.12,0,0,1,1.74-.4,1.23,1.23,0,0,1,1.52,1.16,1.27,1.27,0,0,1-1.16,1.53,8.5,8.5,0,0,0-.92.28c1,.76,1.81,1.28,3,.65a1.54,1.54,0,0,1,2.1.59c.48.63.16,1.09-.37,1.52-.28.22-.74.68-.68.8a3.19,3.19,0,0,0,1,1.08c.27.2.73.14,1,.34s.8.65.78,1-.51.66-.85.93a5.2,5.2,0,0,1-1.19.38,17.7,17.7,0,0,1,1.82,1.4,3.23,3.23,0,0,1,1,1.44c.16.74-.07,1.43-1.12.88a1.54,1.54,0,0,0-.69-.18c-2.15,0-2.29-.29-2.88-2.46-.42-1.54-1.14-3-3-3.6-.27-.08-.39-.89-.46-1.37-.08-.63,0-1.28-.06-1.91h-.44c0,.22-.08.43-.1.64-.09.81-.37,1.68-1.24,1.63-.54,0-1.15-.69-1.54-1.22-1-1.28-1.69-2.81-3.55-3a1.74,1.74,0,0,1-.91-.27c-.34-.32-.79-.77-.77-1.14a1.63,1.63,0,0,1,.9-1A6.47,6.47,0,0,1,583.16,224.57Z"/><path d="M579.59,166.79c-.72-.26-1.28-.44-1.81-.67-.9-.4-1.79-.83-2.67-1.27a5.86,5.86,0,0,1-.82-.59c.23-.24.43-.56.71-.69,1.28-.61,1.46-1.25.58-2.38-.54-.69-1.16-1.33-1.68-2a2.5,2.5,0,0,1-.23-.94,4.09,4.09,0,0,1,1.08-.19,1.3,1.3,0,0,1,.68.45c1.76,1.88,3.53,3.75,5.21,5.7a2.17,2.17,0,0,1,.55,1.73C581,166.36,580.13,166.52,579.59,166.79Z"/><path d="M539.61,133c-.11.11-.34.5-.67.61-1.9.66-3.82,1.25-5.73,1.89-1.12.36-1.54.12-1.71-1-.25-1.8-.2-1.93,1.64-2.19,1.22-.17,2.46-.15,3.68-.26a4.24,4.24,0,0,0,1.36-.33C539.19,131.25,539.64,131.53,539.61,133Z"/><path d="M109.61,127.92a7.62,7.62,0,0,0,.6-.89,6.23,6.23,0,0,0,.72-1.87c.07-.88.33-1.2,1.17-.86,1.32.55,2.67,1.06,3.93,1.73.38.2.82,1,.7,1.31a3.63,3.63,0,0,1-1.3,1.68,1.38,1.38,0,0,1-1.35-.27,2.49,2.49,0,0,0-3-.84A6.56,6.56,0,0,1,109.61,127.92Z"/><path d="M489.44,143c-.14.53.06,1.5-1,1.41s-1.22-1.13-1.26-2c0-.63,0-1.46,1-1.5C488.91,140.94,489.45,141.78,489.44,143Z"/><path d="M27,141.92c-.55.52-.93,1.09-1.12,1a10,10,0,0,1-2.37-1.14c-.19-.13,0-.78,0-1.18a6.24,6.24,0,0,1,1.79.11A8.88,8.88,0,0,1,27,141.92Z"/><path d="M487.55,148.06l-.76,1.45c-.36-.36-1-.68-1.05-1.11a8.07,8.07,0,0,1,0-2.3,1,1,0,0,1,.6-.15C486.78,146.62,487.15,147.33,487.55,148.06Z"/><path d="M158.1,191.38a6.21,6.21,0,0,1-1.2-1.53c-.06-.18.74-.95.92-.87a3.14,3.14,0,0,1,1.31,1.12C159.2,190.2,158.61,190.76,158.1,191.38Z"/><path d="M584.18,219.89a7.34,7.34,0,0,1-1.65,1.09c-.2.06-.57-.46-.87-.71a5.74,5.74,0,0,1,1.19-1.13C583,219,583.49,219.48,584.18,219.89Z"/></svg>