<svg id="Capa_1" data-name="Capa 1" xmlns="http://www.w3.org/2000/svg" viewBox="0 0 322.32 395.34"><title>Sin título-1</title><path d="M0,395.28V0H322.32c0,.56,0,1.12,0,1.68V395.34H1.43C1,395.34.48,395.3,0,395.28ZM15.51,15.39V379.86H306.89V15.39Z"/><path d="M133.29,203.35c5.17,0,10.05,0,14.92,0,6.72-.06,13.46.16,20.14-.34,22-1.65,39.07-11.54,49.94-31.12a49.77,49.77,0,0,0,5.43-18.12,76.84,76.84,0,0,0,.43-16.74,67.79,67.79,0,0,0-8.58-27.42c-5.8-10.22-13.75-18.19-24.36-23.36a54.85,54.85,0,0,0-17.06-4.9,247.07,247.07,0,0,0-32.29-1.74q-22.61,0-45.22,0c-.27,0-.54,0-1,.07V345.51H67.1V50.64c.65,0,1.31-.16,2-.16q34.86,0,69.72,0c6.31,0,12.63,0,18.94.26,11.17.49,22.33,1.25,33.16,4.36,24,6.89,41.67,21.48,53.3,43.48a96.38,96.38,0,0,1,10.14,30.65,106.16,106.16,0,0,1,.58,25.69,87.87,87.87,0,0,1-17,44.87c-8.82,12-19.93,21.09-34,26.36a74,74,0,0,1-17.82,4c-.59.06-1.17.17-1.95.29q35.67,57.6,71.28,115.14c-.52,0-.89.08-1.26.08-10.47,0-20.95,0-31.43,0a3.08,3.08,0,0,1-2.9-1.68q-41.58-67.62-83.2-135.21Z"/></svg>