<svg id="Capa_1" data-name="Capa 1" xmlns="http://www.w3.org/2000/svg" viewBox="0 0 590.8 110.97"><title>Sin título-1</title><path d="M175.28,14.7a141.7,141.7,0,0,1-7.88,17c-3.19,5.64-7.2,10.71-11.15,15.82L144.12,63.22l-3,3.92-1.52,2c-.38.48-1,1.5-1.67,1.61-.23,0-.19.12-.23.08s0-.78,0-1c0-.66.13-1.32.21-2a31.19,31.19,0,0,1,1-4.59c1.7-5.82,6-11.66,12.48-12.33,1.62-.17.23-1.69-.83-1.58-6,.63-10.69,4.93-13,10.37a25,25,0,0,0-1.3,3.92,1.28,1.28,0,0,1-1.35,1,1,1,0,0,0-.7.11c-1.84,1.17-3,3-4.34,4.64-1.18,1.47-3.67,4-5.8,2.88-1.58-.85-2.17-3.24-2.52-4.83a40.78,40.78,0,0,1-.91-8.24c0-.81-1.37-1.35-2.05-1.07a29.56,29.56,0,0,0-12.77,10A37,37,0,0,0,102.85,73a1.26,1.26,0,0,1-2.35-.86,75,75,0,0,1,9.2-23.18c.52-.85-1.73-1.85-2.31-1A128.67,128.67,0,0,1,92.27,66.23c-1,1-6.67,7.13-7.73,3.8-.51-1.58-.09-3.65.14-5.25a34.39,34.39,0,0,1,1.26-5.56A35.86,35.86,0,0,1,91.77,48c.69-.92-1.49-2.07-2.07-1.33-4.88,6.48-9.78,13-15.51,18.75-1.4,1.41-2.84,2.78-4.34,4.08-.73.63-1.46,1.25-2.21,1.84l-.52.39v0a10.45,10.45,0,0,0-.46-1.7c-.56-3.83,1.53-7.6,3.7-10.61A14.47,14.47,0,0,1,74.67,55c1.56-.85,4-.72,4,1.54,0,1,2.36,1.72,2.39.6a4.36,4.36,0,0,0-3-3.9,5.86,5.86,0,0,0-5.44.45,16.31,16.31,0,0,0-4.5,4.75,23.14,23.14,0,0,0-3,5.32c-.17-.14-.33-.21-.46-.15A193,193,0,0,0,45.1,73.16,1.25,1.25,0,0,1,43.23,72v0c.22-4.33-1-8.73-4.52-11.56-3.12-2.52-7.39-3.22-11.31-2.94-5.28.39-10.29,2.44-15.59,2.64-2.43.1-5.32-.08-7.24-1.75s-2.43-4.9-2.77-7.28C.36,41,4.12,30.84,10.3,23A65.6,65.6,0,0,1,33.24,4.91c4.43-2.11,9.37-3.49,14.29-2.63,4.57.8,9,3.39,10.1,8.13,2,8.84-4.17,18.08-11.81,22.12a22.58,22.58,0,0,1-5.89,2.13c-.32.06.62,2.26,1.34,2.11a23.42,23.42,0,0,0,17.44-16.2A16.68,16.68,0,0,0,57.21,7.2,15.5,15.5,0,0,0,47.83.44C38.27-2,28.68,3.91,21.29,9.26c-7.84,5.67-14.76,13-18.46,22A36.29,36.29,0,0,0,0,45.66C.08,50,.9,55,3.63,58.6c3,3.9,7.9,4,12.39,3.34,5.05-.75,10-2.63,15.15-2.37,4.39.22,9.4,1.87,10.34,6.65a21.1,21.1,0,0,1-.4,8.82,1.24,1.24,0,0,1-.58.78c-1.24.74-2.47,1.49-3.69,2.26-4.38,2.78-8.66,5.73-12.8,8.85q-3.11,2.34-6.12,4.8c-1.45,1.2-3.39,2.52-3,4.65.61,3.32,4.11,4.4,7.07,3.89a16.75,16.75,0,0,0,5.41-2.37,32.08,32.08,0,0,0,5.14-3.83,33.23,33.23,0,0,0,9.72-15.93,1.23,1.23,0,0,1,.57-.77q7.8-4.62,16-8.51c1.19-.56,2.39-1.1,3.59-1.63A1.26,1.26,0,0,1,64.2,68.4a8.46,8.46,0,0,0,.7,3.33,2.84,2.84,0,0,0,4.63,1.1A82.29,82.29,0,0,0,80.77,61.91c.92-1.06,1.83-2.13,2.72-3.22a37.09,37.09,0,0,0-1.2,5.49c-.26,1.82-.68,4.06,0,5.84A4.3,4.3,0,0,0,86,72.68,7.29,7.29,0,0,0,90.68,71a41.27,41.27,0,0,0,4.77-4.58c1.63-1.68,3.22-3.4,4.75-5.16.5-.58,1-1.16,1.46-1.74A75.94,75.94,0,0,0,96.6,82.44c0,.85,1.64,1.49,2.23,1,4.08-3.58,5.59-8.92,8.5-13.32a27.82,27.82,0,0,1,9.12-8.58,1.26,1.26,0,0,1,1.89,1,32.66,32.66,0,0,0,1,5.75c.61,2.2,1.8,4.39,4,5.4,2.46,1.16,5,.37,7-1.35s3.14-4.16,5.21-5.78c-.14.94-.24,1.89-.31,2.83a2.66,2.66,0,0,0,1.38,2.86,3.42,3.42,0,0,0,3.41-.3A13.26,13.26,0,0,0,143,68.62l3.64-4.71,7.12-9.21c.14-.19.29-.37.43-.55a1.26,1.26,0,0,1,2.21,1.09,104.6,104.6,0,0,0-2.64,13.39c-.62,4.53-1,9.09-1.37,13.65A107.5,107.5,0,0,0,152,95.83a36.07,36.07,0,0,0,3.55,14.55c.62,1.21,3,.36,2.36-.83-4-7.91-3.8-17-3.21-25.58.62-9,1.44-18,3.6-26.7A69.6,69.6,0,0,1,163.41,43a.93.93,0,0,0,.06-.85c1.25-1.7,2.46-3.42,3.61-5.18,4.38-6.71,7.61-14.07,10.58-21.49C178,14.54,175.66,13.75,175.28,14.7ZM16.36,97.6c-.44-.18-.06-.3,0,0ZM38.07,83.11c-3.44,6.45-9.18,12.17-16,14.68a7.48,7.48,0,0,1-5.13.06c-.17-.06-.32-.17-.49-.23h0a3.11,3.11,0,0,1,.21-1.1,8.8,8.8,0,0,1,2.67-2.66q6-4.92,12.42-9.36c1.51-1,3-2,4.57-3Z"/><path d="M238.8,58.07l-9.7,7.41c-1.56,1.19-3.09,2.4-4.66,3.56a5,5,0,0,1-2.21,1.16c-1,.08-1.13-.8-1.08-1.66a23.27,23.27,0,0,1,1.19-5.06q.75-2.55,1.73-5a59.25,59.25,0,0,1,5.09-10c.75-1.2-1.45-2.06-2.21-1.1L212.26,66c-1.16,1.46-2.31,2.94-3.48,4.4a8.84,8.84,0,0,1-3.53,3.06c-1.22.44-1.45-.36-1.61-1.44a12.67,12.67,0,0,1,1.21-7.6c.41-.83-.47-1.54-1.26-1.58a23.49,23.49,0,0,1,5.62-4.42c2.24-1.11,5.14-1.39,7.19.25,1.28,1,1.73-1.11.74-1.9-3.93-3.12-9-1.18-12.42,1.69-2,1.65-3.67,3.6-5.72,5.14-1.74,1.31-4.62,3.1-6.9,2.19-1-.41-1-1.71-1.3-2.63A4.22,4.22,0,0,0,189,60.67c-1.93-1.11-4.17.06-5.67,1.38-3.24,2.83-5.11,6.8-6.64,10.74-1.42,3.66-2.63,7.46-4.58,10.87A53.27,53.27,0,0,1,182,53.8c.69-1-.88-2.89-1.64-1.83a55.37,55.37,0,0,0-10.27,35.17c0,.72,1.19,1.89,1.83,1.06,5.13-6.64,5.68-15.7,11-22.21,1-1.3,3.26-3.92,5.22-3.39,1,.28,1,1.84,1.3,2.7a4.53,4.53,0,0,0,1.75,2.31c3.71,2.39,8.42-1.13,11.17-3.63a14.74,14.74,0,0,0-1.27,5c-.11,1.69-.14,4.27,1.09,5.62s3.29,1.16,4.8.46a11.66,11.66,0,0,0,3.91-3.45c3.59-4.45,7.13-8.94,10.67-13.44-.12.3-.25.6-.36.9a57.87,57.87,0,0,0-2,6.33c-.41,1.63-1,3.62-.06,5.18,2.45,4.07,7.33-.24,9.64-2q5.91-4.53,11.84-9C241.81,58.68,239.79,57.32,238.8,58.07Z"/><path d="M589.63,60.76c-.32-.08-.93-.34-1.25-.18a58.3,58.3,0,0,1-15.13,5.15h0c.23,4,.29,9.6-4.39,11-.88.26-1.45.39-2.08-.36a5.59,5.59,0,0,1-1-3.56,21.35,21.35,0,0,1,.69-5.68l.25-.35c2.31-3.45,4-8.09,8.22-9.58.37-.13-.64-.63-.7-.65a2.35,2.35,0,0,0-1.53-.26c-3,1-4.8,3.78-6.35,6.41-.37.61-.73,1.21-1.11,1.8-.32-.06-.57-.08-.6,0-.2.58-.38,1.15-.53,1.74a31.55,31.55,0,0,1-4.39,5.23,28.37,28.37,0,0,1-9.53,6.16c-2,.74-4.45,1.19-6.17-.41a5.13,5.13,0,0,1-1.17-5.38,53.26,53.26,0,0,1,5.72-13c.19-.32-2-1.18-2.37-.78A83.38,83.38,0,0,1,532.59,69.8,66.57,66.57,0,0,1,517.16,78c-2.84,1-6.91,2-9.74.5-3-1.61-2.67-4.81-1.93-7.64a31,31,0,0,1,7.56-13.54c1.09-1.15,6.19-6.37,7.66-4,1.27,2.09-.17,5.11-1.25,7-.16.29,2.07,1.3,2.38.78,1.12-1.94,2.51-5,1.21-7.15s-4.62-2.67-6.8-1.78c-2.81,1.14-5.24,3.82-7.13,6.13a31.33,31.33,0,0,0-4.28,7,1.82,1.82,0,0,0-1.23.24l-10,8.84c-1.55,1.37-3.06,2.87-4.74,4.08-1.39,1-3.2,2-4.9,1.14s-2-2.94-1.86-4.69c.31-3.57,1.59-7.16,1.95-10.42a20.6,20.6,0,0,1,3-8c.68-1.15-1.9-1-2.35-.41a50,50,0,0,1-8.29,9c-1.34,1.13-3.45,2.7-5.12,1.26-1.1-1-1-2.64-1.19-4A2.79,2.79,0,0,0,468.5,60a3.76,3.76,0,0,0-4,1,39.59,39.59,0,0,0-3.5,4.9l-3.83,5.5q-2.67,3.84-5.35,7.69a116,116,0,0,1,8.39-24.85c.42-.89-2-1-2.41-.28-2.49,4.23-19.09,17.57-20.39,18.18l-.36.16a3,3,0,0,1-1.45.36c-.22,0-.43-.15-.83-.56a6.62,6.62,0,0,1-1.33-2c-.7-1.84-.32-3.94.14-5.79,1.05-4.15,2.31-8.26,3.47-12.39a5.65,5.65,0,0,0-2.45.19,169,169,0,0,1-18.21,15.48c-.74.54-1.48,1.1-2.24,1.62s-1.28,1-1.67-.37c-.48-1.62.06-3.83.44-5.42a47.11,47.11,0,0,1,4.41-10.61c0,.08-2.13-.25-2.45.18a75.32,75.32,0,0,1-8.8,10.08c-1.56,1.5-3.18,2.92-4.87,4.28-.9.72-1.81,1.42-2.74,2.1-.47.34-.93.68-1.41,1a7.34,7.34,0,0,1-.71.42h0c0-.17-.6-.72-.68-1a3.72,3.72,0,0,1-.1-1.29,21,21,0,0,1,.58-3.24c.49-2.25,1.06-4.47,1.71-6.68A91.24,91.24,0,0,1,403,45.33c0,.05-2.13-.22-2.44.18-5.31,6.84-10.4,13.93-16.06,20.48a52.05,52.05,0,0,1-4.11,4.29c-.7.65-1.42,1.27-2.17,1.86a9.69,9.69,0,0,1-1,.75s-.21.07-.32.13a2.28,2.28,0,0,1-.4-.35c-.46-.72-.13-1.76.05-2.51.23-1,.51-2,.83-2.94a33.66,33.66,0,0,1,2.35-5.4c1.71-3.14,5.81-10,10.06-6.68.31.24,1.19,0,1.55,0,.11,0,1-.18.84-.33-3.14-2.44-8.29-1-10.89,1.57-3.31,3.23-5.5,7.95-6.78,12.36-.62-.14-1.69-.15-2,.21a42,42,0,0,1-5.79,5.68,23.75,23.75,0,0,1-2.79,2c-.63.37-1.18.69-1.88.39a3.86,3.86,0,0,1-1.35-1c-1.46-1.63-2-3.86-2.63-5.91q-1.22-4.14-2.45-8.28c-1.06-3.57-1.89-9.21-6.42-9.84-4.88-.69-8.09,3.91-11,7.06L327,71a121.83,121.83,0,0,1,7.14-43.33c.05-.15,0-.24-.15-.31-4.71-2-8.48,1.92-10.9,5.48q-5,7.32-9.73,14.76-9.75,15.18-18.71,30.83Q291,84.94,287.4,91.52a169.69,169.69,0,0,1,10.69-54.15q3-7.9,6.72-15.47c.25-.52-2.13-.67-2.42-.09a169.51,169.51,0,0,0-17.58,74.5c0,.6,2.23.4,2.46,0q15.39-28.74,33.37-56,2.75-4.17,5.55-8.29a16.6,16.6,0,0,1,1.92-2.34c.87-.88,2.25-2.16,3.56-1.81a122.5,122.5,0,0,0-7.05,45.85c0,.69,2.16.28,2.45,0l16.74-18.07c.28-.3.57-.59.86-.87.77-.72,2.05-1.95,3.18-2s2,1.05,2.5,1.82c1.35,1.93,1.83,4.44,2.49,6.66q1.28,4.26,2.53,8.52c1,3.41,2.18,8.12,6.53,8.27,2.74.09,4.88-1.48,6.93-3.11a43.31,43.31,0,0,0,5.27-5c-.43,1.6-.81,3.62,1.34,3.78a7.17,7.17,0,0,0,5-1.52c4.07-3.14,7.33-7.21,10.48-11.25q3.36-4.34,6.71-8.66c-.64,1.68-1.25,3.37-1.8,5.08-.62,2-1.18,4-1.67,6a27.31,27.31,0,0,0-1.1,5.64c-.09,3.7,4.35,2.76,6.41,1.38a68,68,0,0,0,9-7.38c1.12-1.07,2.2-2.19,3.25-3.34A25.64,25.64,0,0,0,410,65.8c-.19,1.44-.66,4,1.19,4.49a6.77,6.77,0,0,0,4.39-.66A37.94,37.94,0,0,0,421,65.8q2.75-2.09,5.4-4.29,3.76-3.1,7.33-6.43l-1.47,5.24c-.71,2.53-1.76,5.22-1.69,7.89a6.19,6.19,0,0,0,2.8,4.89,5.67,5.67,0,0,0,4,.46c.19,0,.53-.11.94-.22a14.46,14.46,0,0,0,2.89-1.23,154.07,154.07,0,0,0,13.13-10c-.73,2.64-5.85,21.15-6,22.09s2.12.59,2.46.11l7.8-11.21c1.27-1.84,2.55-3.67,3.83-5.51s2.53-4,4-5.72c0-.05.66-.81.56-.81.2,0,.39.5.45.64a7.76,7.76,0,0,1,.35,2,4.81,4.81,0,0,0,1.53,3.54c2.72,2.13,6.41.83,8.81-1.06a39.18,39.18,0,0,0,4.57-4.27q-.89,2.79-1.59,5.64-.66,2.7-1.16,5.45a10.24,10.24,0,0,0-.07,4.89c.9,2.87,4.18,3.71,6.87,3.24,3.37-.6,5.88-3.28,8.34-5.45l8.68-7.7c-1,2.58-1.95,5.87-.57,8.23s4.2,3.36,6.64,3.81c7.16,1.31,14.35-2.73,20.29-6.25a84,84,0,0,0,12.78-9.31,37.48,37.48,0,0,0-2.51,7.12c-.93,4,2.11,6.6,5.69,7.5,4.24,1.06,8.37-1,11.8-3.34A32.72,32.72,0,0,0,563.4,71c0,.2,0,.39,0,.59,0,1.86.18,4,1.93,5a7.18,7.18,0,0,0,8-.25,7.72,7.72,0,0,0,2.4-5.16,20.17,20.17,0,0,0,.1-2.8,5.87,5.87,0,0,1-.07-1.61c.24-.66,1.15-.61,1.72-.74a58.14,58.14,0,0,0,13.4-4.82S589.75,60.79,589.63,60.76Z"/><circle cx="554.47" cy="48.3" r="1.42"/></svg>